<?xml version="1.0" encoding="UTF-8" standalone="no"?>
<svg
   xmlns:dc="http://purl.org/dc/elements/1.1/"
   xmlns:cc="http://creativecommons.org/ns#"
   xmlns:rdf="http://www.w3.org/1999/02/22-rdf-syntax-ns#"
   xmlns:svg="http://www.w3.org/2000/svg"
   xmlns="http://www.w3.org/2000/svg"
   xmlns:xlink="http://www.w3.org/1999/xlink"
   xmlns:sodipodi="http://sodipodi.sourceforge.net/DTD/sodipodi-0.dtd"
   xmlns:inkscape="http://www.inkscape.org/namespaces/inkscape"
   id="svg4379"
   height="128"
   width="128"
   version="1.1"
   inkscape:version="0.91 r13725"
   sodipodi:docname="com.github.parnold-x.sudoku.svg">
  <sodipodi:namedview
     pagecolor="#ffffff"
     bordercolor="#666666"
     borderopacity="1"
     objecttolerance="10"
     gridtolerance="10"
     guidetolerance="10"
     inkscape:pageopacity="0"
     inkscape:pageshadow="2"
     inkscape:window-width="1920"
     inkscape:window-height="1017"
     id="namedview51"
     showgrid="true"
     inkscape:zoom="1"
     inkscape:cx="-120.1724"
     inkscape:cy="74.669248"
     inkscape:window-x="0"
     inkscape:window-y="30"
     inkscape:window-maximized="1"
     inkscape:current-layer="svg4379">
    <inkscape:grid
       type="xygrid"
       id="grid4190"
       empspacing="4"
       enabled="false" />
    <inkscape:grid
       type="xygrid"
       id="grid4192"
       spacingx="0.5"
       spacingy="0.5"
       empspacing="2"
       color="#ff3fff"
       opacity="0.1254902"
       empcolor="#3fffff"
       empopacity="0.10196078"
       enabled="false" />
  </sodipodi:namedview>
  <defs
     id="defs4381">
    <linearGradient
       gradientTransform="matrix(0.89553576,0,0,-0.89663265,6.6836208,69.705837)"
       gradientUnits="userSpaceOnUse"
       xlink:href="#linearGradient4113"
       id="linearGradient3149"
       y2="3.4508991"
       x2="76.523361"
       y1="-9.023138"
       x1="76.523361" />
    <linearGradient
       id="linearGradient4113">
      <stop
         offset="0"
         style="stop-color:#000000;stop-opacity:1"
         id="stop4115" />
      <stop
         offset="1"
         style="stop-color:#000000;stop-opacity:0"
         id="stop4117" />
    </linearGradient>
    <linearGradient
       gradientTransform="matrix(2.7297298,0,0,2.7297298,-1.5135124,1.486514)"
       gradientUnits="userSpaceOnUse"
       xlink:href="#linearGradient3924-776"
       id="linearGradient3159"
       y2="43"
       x2="23.99999"
       y1="4.999989"
       x1="23.99999" />
    <linearGradient
       id="linearGradient3924-776">
      <stop
         offset="0"
         style="stop-color:#ffffff;stop-opacity:1"
         id="stop3124" />
      <stop
         offset="0.06316455"
         style="stop-color:#ffffff;stop-opacity:0.23529412"
         id="stop3126" />
      <stop
         offset="0.95056331"
         style="stop-color:#ffffff;stop-opacity:0.15686275"
         id="stop3128" />
      <stop
         offset="1"
         style="stop-color:#ffffff;stop-opacity:0.39215687"
         id="stop3130" />
    </linearGradient>
    <radialGradient
       gradientTransform="matrix(0,25.083279,-30.794253,0,372.81658,-208.0918)"
       gradientUnits="userSpaceOnUse"
       xlink:href="#linearGradient2867-449-88-871-390-598-476-591-434-148-57-177-8-3-3-6-4-8-8-8-5-4"
       id="radialGradient3395"
       fy="9.9571075"
       fx="6.2001843"
       r="12.671875"
       cy="9.9571075"
       cx="6.7304144" />
    <linearGradient
       id="linearGradient2867-449-88-871-390-598-476-591-434-148-57-177-8-3-3-6-4-8-8-8-5">
      <stop
         offset="0"
         style="stop-color:#95a3ab;stop-opacity:1"
         id="stop3750-1-0-7-6-6-1-3-9-3" />
      <stop
         offset="0.26238"
         style="stop-color:#667885;stop-opacity:1"
         id="stop3752-3-7-4-0-32-8-923-0-7" />
      <stop
         offset="0.704952"
         style="stop-color:#485a6c;stop-opacity:1"
         id="stop3754-1-8-5-2-7-6-7-1-9" />
      <stop
         offset="1"
         style="stop-color:#273445;stop-opacity:1"
         id="stop3756-1-6-2-6-6-1-96-6-0" />
    </linearGradient>
    <radialGradient
       gradientTransform="matrix(2.003784,0,0,1.4,27.98813,-17.4)"
       gradientUnits="userSpaceOnUse"
       xlink:href="#linearGradient3688-166-749-5"
       id="radialGradient2455-1"
       fy="43.5"
       fx="4.9929786"
       r="2.5"
       cy="43.5"
       cx="4.9929786" />
    <linearGradient
       id="linearGradient3688-166-749-5">
      <stop
         offset="0"
         style="stop-color:#181818;stop-opacity:1"
         id="stop2883-0" />
      <stop
         offset="1"
         style="stop-color:#181818;stop-opacity:0"
         id="stop2885-5" />
    </linearGradient>
    <radialGradient
       gradientTransform="matrix(2.003784,0,0,1.4,-20.01187,-104.4)"
       gradientUnits="userSpaceOnUse"
       xlink:href="#linearGradient3688-464-309-8"
       id="radialGradient2457-5"
       fy="43.5"
       fx="4.9929786"
       r="2.5"
       cy="43.5"
       cx="4.9929786" />
    <linearGradient
       id="linearGradient3688-464-309-8">
      <stop
         offset="0"
         style="stop-color:#181818;stop-opacity:1"
         id="stop2889-9" />
      <stop
         offset="1"
         style="stop-color:#181818;stop-opacity:0"
         id="stop2891-4" />
    </linearGradient>
    <linearGradient
       gradientUnits="userSpaceOnUse"
       xlink:href="#linearGradient3702-501-757-0"
       id="linearGradient2459-7"
       y2="39.999443"
       x2="25.058096"
       y1="47.027729"
       x1="25.058096" />
    <linearGradient
       id="linearGradient3702-501-757-0">
      <stop
         offset="0"
         style="stop-color:#181818;stop-opacity:0"
         id="stop2895-0" />
      <stop
         offset="0.5"
         style="stop-color:#181818;stop-opacity:1"
         id="stop2897-2" />
      <stop
         offset="1"
         style="stop-color:#181818;stop-opacity:0"
         id="stop2899-6" />
    </linearGradient>
    <linearGradient
       id="linearGradient3811">
      <stop
         offset="0"
         style="stop-color:#000000;stop-opacity:1"
         id="stop3813" />
      <stop
         offset="1"
         style="stop-color:#000000;stop-opacity:0"
         id="stop3815" />
    </linearGradient>
    <radialGradient
       gradientTransform="matrix(1.5563924,0,0,0.16978827,70.270358,102.13029)"
       gradientUnits="userSpaceOnUse"
       xlink:href="#linearGradient3811"
       id="radialGradient4377"
       fy="93.467628"
       fx="-4.0287771"
       r="35.338131"
       cy="93.467628"
       cx="-4.0287771" />
    <radialGradient
       gradientTransform="matrix(3.1638751,0,0,0.99999998,-76.702887,50.500003)"
       gradientUnits="userSpaceOnUse"
       xlink:href="#linearGradient3688-166-749-5"
       id="radialGradient2873-966-168-714"
       fy="43.5"
       fx="4.9929786"
       r="2.5"
       cy="43.5"
       cx="4.9929786" />
    <radialGradient
       gradientTransform="matrix(3.1638751,0,0,0.99999998,89.297004,-137.5)"
       gradientUnits="userSpaceOnUse"
       xlink:href="#linearGradient3688-166-749-5"
       id="radialGradient2875-742-326-419"
       fy="43.5"
       fx="4.9929786"
       r="2.5"
       cy="43.5"
       cx="4.9929786" />
    <radialGradient
       r="12.671875"
       fy="9.9571075"
       fx="6.2001843"
       cy="9.9571075"
       cx="6.7304144"
       gradientTransform="matrix(0,13.393984,-16.443533,0,81.90205,-80.39368)"
       gradientUnits="userSpaceOnUse"
       id="radialGradient4147"
       xlink:href="#linearGradient2867-449-88-871-390-598-476-591-434-148-57-177-8-3-3-6-4-8-8-8-5-4" />
    <linearGradient
       id="linearGradient2867-449-88-871-390-598-476-591-434-148-57-177-8-3-3-6-4-8-8-8-5-4">
      <stop
         id="stop3750-1-0-7-6-6-1-3-9-3-3"
         style="stop-color:#EFEBE9;stop-opacity:1"
         offset="0" />
      <stop
         id="stop3752-3-7-4-0-32-8-923-0-7-3"
         style="stop-color:#BCAAA4;stop-opacity:1"
         offset="0.26238" />
      <stop
         id="stop3754-1-8-5-2-7-6-7-1-9-6"
         style="stop-color:#8D6E63;stop-opacity:1"
         offset="0.704952" />
      <stop
         id="stop3756-1-6-2-6-6-1-96-6-0-9"
         style="stop-color:#6D4C41;stop-opacity:1"
         offset="1" />
    </linearGradient>
    <linearGradient
       y2="42.091705"
       x2="23.99999"
       y1="5.9093657"
       x1="23.99999"
       gradientTransform="matrix(1.4324324,0,0,1.4362832,-117.37837,32.029217)"
       gradientUnits="userSpaceOnUse"
       id="linearGradient3904"
       xlink:href="#linearGradient4270" />
    <linearGradient
       id="linearGradient4270">
      <stop
         id="stop4272"
         style="stop-color:#ffffff;stop-opacity:1"
         offset="0" />
      <stop
         id="stop4274"
         style="stop-color:#ffffff;stop-opacity:0.23529412"
         offset="0.0348749" />
      <stop
         id="stop4276"
         style="stop-color:#ffffff;stop-opacity:0.15686275"
         offset="0.96216321" />
      <stop
         id="stop4278"
         style="stop-color:#ffffff;stop-opacity:0.39215687"
         offset="1" />
    </linearGradient>
    <linearGradient
       inkscape:collect="always"
       xlink:href="#linearGradient4237"
       id="linearGradient4243"
       x1="31.995493"
       y1="16.979605"
       x2="31.995493"
       y2="46.777725"
       gradientUnits="userSpaceOnUse"
       gradientTransform="matrix(0.99301849,0,0,1.0070306,-115,34.575698)" />
    <linearGradient
       inkscape:collect="always"
       id="linearGradient4237">
      <stop
         style="stop-color:#7a0000;stop-opacity:1"
         offset="0"
         id="stop4239" />
      <stop
         style="stop-color:#440606;stop-opacity:1"
         offset="1"
         id="stop4241" />
    </linearGradient>
  </defs>
  <metadata
     id="metadata4384">
    <rdf:RDF>
      <cc:Work
         rdf:about="">
        <dc:format>image/svg+xml</dc:format>
        <dc:type
           rdf:resource="http://purl.org/dc/dcmitype/StillImage" />
        <dc:title></dc:title>
      </cc:Work>
    </rdf:RDF>
  </metadata>
  <g
     id="g4704">
    <g
       id="g4179">
      <path
         d="M 119,118 A 55,6 0 0 1 9.0000016,118 55,6 0 1 1 119,118 Z"
         id="path3041"
         style="color:#000000;display:inline;overflow:visible;visibility:visible;opacity:0.2;fill:url(#radialGradient4377);fill-opacity:1;fill-rule:nonzero;stroke:none;stroke-width:1;marker:none;enable-background:accumulate" />
      <g
         transform="matrix(2.6999989,0,0,0.55555607,-0.8000019,94.888882)"
         id="g2036"
         style="display:inline">
        <g
           transform="matrix(1.052632,0,0,1.285713,-1.263158,-13.42854)"
           id="g3712"
           style="opacity:0.4">
          <rect
             width="5"
             height="7"
             x="38"
             y="40"
             id="rect2801"
             style="fill:url(#radialGradient2455-1);fill-opacity:1;stroke:none" />
          <rect
             width="5"
             height="7"
             x="-10"
             y="-47"
             transform="scale(-1,-1)"
             id="rect3696"
             style="fill:url(#radialGradient2457-5);fill-opacity:1;stroke:none" />
          <rect
             width="28"
             height="7.0000005"
             x="10"
             y="40"
             id="rect3700"
             style="fill:url(#linearGradient2459-7);fill-opacity:1;stroke:none" />
        </g>
      </g>
      <rect
         width="103"
         height="103"
         rx="6.0545406"
         ry="6.0545406"
         x="12.5"
         y="15.5"
         id="rect5505-21-3"
         style="color:#000000;display:inline;overflow:visible;visibility:visible;fill:url(#radialGradient3395);fill-opacity:1.0;fill-rule:nonzero;stroke:none;stroke-width:0.99999994;marker:none;enable-background:accumulate" />
      <rect
         width="101"
         height="101"
         rx="5"
         ry="5"
         x="13.5"
         y="16.5"
         id="rect6741-7"
         style="opacity:0.5;fill:none;stroke:url(#linearGradient3159);stroke-width:0.99999994;stroke-linecap:round;stroke-linejoin:round;stroke-miterlimit:4;stroke-dasharray:none;stroke-dashoffset:0;stroke-opacity:1" />
      <rect
         width="103"
         height="103"
         rx="6"
         ry="6"
         x="12.5"
         y="15.5"
         id="rect5505-21-6"
         style="color:#000000;display:inline;overflow:visible;visibility:visible;opacity:0.7;fill:none;stroke:#4e342e;stroke-width:1;stroke-linecap:round;stroke-linejoin:round;stroke-miterlimit:4;stroke-dasharray:none;stroke-dashoffset:0;stroke-opacity:1;marker:none;enable-background:accumulate" />
    </g>
    <path
       sodipodi:nodetypes="cccccc"
       inkscape:connector-curvature="0"
       style="opacity:0.4;fill:none;fill-rule:evenodd;stroke:#ffffff;stroke-width:1px;stroke-linecap:butt;stroke-linejoin:miter;stroke-opacity:1"
       d="M 12.500001,52.5 115.5,52.5 Z m 0,33 102.999999,0 z"
       id="path4461" />
    <path
       id="path4208"
       d="m 45.5,16 0,102 z m 37,0 0,102 z"
       style="opacity:0.7;fill:none;fill-rule:evenodd;stroke:#4e342e;stroke-width:1px;stroke-linecap:butt;stroke-linejoin:miter;stroke-opacity:1"
       inkscape:connector-curvature="0"
       sodipodi:nodetypes="cccccc" />
    <path
       id="path4216"
       d="M 12.500001,51.5 115.5,51.5 Z m 0,33 102.999999,0 z"
       style="opacity:0.7;fill:none;fill-rule:evenodd;stroke:#4e342e;stroke-width:1px;stroke-linecap:butt;stroke-linejoin:miter;stroke-opacity:1"
       inkscape:connector-curvature="0"
       sodipodi:nodetypes="cccccc" />
    <g
       style="stroke:#ffffff;stroke-opacity:1;opacity:0.15"
       id="g4643">
      <g
         style="stroke:#ffffff;stroke-opacity:1"
         id="g4597">
        <path
           inkscape:connector-curvature="0"
           id="path4463"
           d="m 57.5,16 0,35"
           style="fill:none;fill-rule:evenodd;stroke:#ffffff;stroke-width:1px;stroke-linecap:butt;stroke-linejoin:miter;stroke-opacity:1" />
        <path
           inkscape:connector-curvature="0"
           id="path4465"
           d="m 70.5,16 0,35"
           style="fill:none;fill-rule:evenodd;stroke:#ffffff;stroke-width:1px;stroke-linecap:butt;stroke-linejoin:miter;stroke-opacity:1" />
        <path
           sodipodi:nodetypes="cc"
           inkscape:connector-curvature="0"
           id="path4467"
           d="m 46,27.5 36,0"
           style="fill:none;fill-rule:evenodd;stroke:#ffffff;stroke-width:1px;stroke-linecap:butt;stroke-linejoin:miter;stroke-opacity:1" />
        <path
           sodipodi:nodetypes="cc"
           inkscape:connector-curvature="0"
           id="path4469"
           d="m 46,39.5 36,0"
           style="fill:none;fill-rule:evenodd;stroke:#ffffff;stroke-width:1px;stroke-linecap:butt;stroke-linejoin:miter;stroke-opacity:1" />
      </g>
      <g
         style="stroke:#ffffff;stroke-opacity:1"
         id="g4607">
        <path
           sodipodi:nodetypes="cc"
           inkscape:connector-curvature="0"
           id="path4505"
           d="m 57.5,85 0,33"
           style="fill:none;fill-rule:evenodd;stroke:#ffffff;stroke-width:1px;stroke-linecap:butt;stroke-linejoin:miter;stroke-opacity:1" />
        <path
           sodipodi:nodetypes="cc"
           inkscape:connector-curvature="0"
           id="path4507"
           d="m 70.5,85 0,33"
           style="fill:none;fill-rule:evenodd;stroke:#ffffff;stroke-width:1px;stroke-linecap:butt;stroke-linejoin:miter;stroke-opacity:1" />
        <path
           sodipodi:nodetypes="cc"
           inkscape:connector-curvature="0"
           id="path4509"
           d="m 46,107.5 36,0"
           style="fill:none;fill-rule:evenodd;stroke:#ffffff;stroke-width:1px;stroke-linecap:butt;stroke-linejoin:miter;stroke-opacity:1" />
        <path
           style="fill:none;fill-rule:evenodd;stroke:#ffffff;stroke-width:1px;stroke-linecap:butt;stroke-linejoin:miter;stroke-opacity:1"
           d="m 46,95.500001 36,0"
           id="path4511"
           inkscape:connector-curvature="0"
           sodipodi:nodetypes="cc" />
      </g>
      <g
         style="stroke:#ffffff;stroke-opacity:1"
         id="g4549">
        <path
           style="fill:none;fill-rule:evenodd;stroke:#ffffff;stroke-width:1px;stroke-linecap:butt;stroke-linejoin:miter;stroke-opacity:1"
           d="m 83,39.5 32,0"
           id="path4471"
           inkscape:connector-curvature="0"
           sodipodi:nodetypes="cc" />
        <path
           sodipodi:nodetypes="cc"
           inkscape:connector-curvature="0"
           id="path4473"
           d="m 83,27.5 32,0"
           style="fill:none;fill-rule:evenodd;stroke:#ffffff;stroke-width:1px;stroke-linecap:butt;stroke-linejoin:miter;stroke-opacity:1" />
        <path
           sodipodi:nodetypes="cc"
           inkscape:connector-curvature="0"
           id="path4525"
           d="m 104.5,16 0,35"
           style="fill:none;fill-rule:evenodd;stroke:#ffffff;stroke-width:1px;stroke-linecap:butt;stroke-linejoin:miter;stroke-opacity:1" />
        <path
           sodipodi:nodetypes="cc"
           inkscape:connector-curvature="0"
           id="path4527"
           d="m 93.5,16 0,35"
           style="fill:none;fill-rule:evenodd;stroke:#ffffff;stroke-width:1px;stroke-linecap:butt;stroke-linejoin:miter;stroke-opacity:1" />
      </g>
      <g
         style="stroke:#ffffff;stroke-opacity:1"
         id="g4567">
        <path
           sodipodi:nodetypes="cc"
           inkscape:connector-curvature="0"
           id="path4497"
           d="m 83,107.5 32,0"
           style="fill:none;fill-rule:evenodd;stroke:#ffffff;stroke-width:1px;stroke-linecap:butt;stroke-linejoin:miter;stroke-opacity:1" />
        <path
           style="fill:none;fill-rule:evenodd;stroke:#ffffff;stroke-width:1px;stroke-linecap:butt;stroke-linejoin:miter;stroke-opacity:1"
           d="m 83,95.500001 32,0"
           id="path4499"
           inkscape:connector-curvature="0"
           sodipodi:nodetypes="cc" />
        <path
           sodipodi:nodetypes="cc"
           inkscape:connector-curvature="0"
           id="path4533"
           d="m 104.5,85 0,33"
           style="fill:none;fill-rule:evenodd;stroke:#ffffff;stroke-width:1px;stroke-linecap:butt;stroke-linejoin:miter;stroke-opacity:1" />
        <path
           sodipodi:nodetypes="cc"
           inkscape:connector-curvature="0"
           id="path4535"
           d="m 93.5,85 0,33"
           style="fill:none;fill-rule:evenodd;stroke:#ffffff;stroke-width:1px;stroke-linecap:butt;stroke-linejoin:miter;stroke-opacity:1" />
      </g>
      <g
         style="stroke:#ffffff;stroke-opacity:1"
         id="g4555">
        <path
           sodipodi:nodetypes="cc"
           inkscape:connector-curvature="0"
           id="path4475"
           d="m 13,39.5 32,0"
           style="fill:none;fill-rule:evenodd;stroke:#ffffff;stroke-width:1px;stroke-linecap:butt;stroke-linejoin:miter;stroke-opacity:1" />
        <path
           style="fill:none;fill-rule:evenodd;stroke:#ffffff;stroke-width:1px;stroke-linecap:butt;stroke-linejoin:miter;stroke-opacity:1"
           d="m 13,27.5 32,0"
           id="path4477"
           inkscape:connector-curvature="0"
           sodipodi:nodetypes="cc" />
        <path
           style="fill:none;fill-rule:evenodd;stroke:#ffffff;stroke-width:1px;stroke-linecap:butt;stroke-linejoin:miter;stroke-opacity:1"
           d="m 34.5,16 0,35"
           id="path4537"
           inkscape:connector-curvature="0"
           sodipodi:nodetypes="cc" />
        <path
           style="fill:none;fill-rule:evenodd;stroke:#ffffff;stroke-width:1px;stroke-linecap:butt;stroke-linejoin:miter;stroke-opacity:1"
           d="m 23.5,16 0,35"
           id="path4539"
           inkscape:connector-curvature="0"
           sodipodi:nodetypes="cc" />
      </g>
      <g
         style="stroke:#ffffff;stroke-opacity:1"
         id="g4561">
        <path
           style="fill:none;fill-rule:evenodd;stroke:#ffffff;stroke-width:1px;stroke-linecap:butt;stroke-linejoin:miter;stroke-opacity:1"
           d="m 13,107.5 32,0"
           id="path4493"
           inkscape:connector-curvature="0"
           sodipodi:nodetypes="cc" />
        <path
           sodipodi:nodetypes="cc"
           inkscape:connector-curvature="0"
           id="path4495"
           d="m 13,95.500001 32,0"
           style="fill:none;fill-rule:evenodd;stroke:#ffffff;stroke-width:1px;stroke-linecap:butt;stroke-linejoin:miter;stroke-opacity:1" />
        <path
           style="fill:none;fill-rule:evenodd;stroke:#ffffff;stroke-width:1px;stroke-linecap:butt;stroke-linejoin:miter;stroke-opacity:1"
           d="m 34.5,85 0,33"
           id="path4545"
           inkscape:connector-curvature="0"
           sodipodi:nodetypes="cc" />
        <path
           style="fill:none;fill-rule:evenodd;stroke:#ffffff;stroke-width:1px;stroke-linecap:butt;stroke-linejoin:miter;stroke-opacity:1"
           d="m 23.5,85 0,33"
           id="path4547"
           inkscape:connector-curvature="0"
           sodipodi:nodetypes="cc" />
      </g>
      <g
         style="stroke:#ffffff;stroke-opacity:1"
         id="g4625">
        <path
           sodipodi:nodetypes="cc"
           inkscape:connector-curvature="0"
           id="path4541"
           d="m 34.5,52 0,32"
           style="fill:none;fill-rule:evenodd;stroke:#ffffff;stroke-width:1px;stroke-linecap:butt;stroke-linejoin:miter;stroke-opacity:1" />
        <path
           sodipodi:nodetypes="cc"
           inkscape:connector-curvature="0"
           id="path4543"
           d="m 23.5,52 0,32"
           style="fill:none;fill-rule:evenodd;stroke:#ffffff;stroke-width:1px;stroke-linecap:butt;stroke-linejoin:miter;stroke-opacity:1" />
        <path
           inkscape:connector-curvature="0"
           id="path4613"
           d="m 13,62.5 32,0"
           style="fill:none;fill-rule:evenodd;stroke:#ffffff;stroke-width:1px;stroke-linecap:butt;stroke-linejoin:miter;stroke-opacity:1" />
        <path
           inkscape:connector-curvature="0"
           id="path4615"
           d="m 13,73.5 31.999999,0"
           style="fill:none;fill-rule:evenodd;stroke:#ffffff;stroke-width:1px;stroke-linecap:butt;stroke-linejoin:miter;stroke-opacity:1" />
      </g>
      <g
         style="stroke:#ffffff;stroke-opacity:1"
         id="g4631">
        <path
           style="fill:none;fill-rule:evenodd;stroke:#ffffff;stroke-width:1px;stroke-linecap:butt;stroke-linejoin:miter;stroke-opacity:1"
           d="m 104.5,52 0,32"
           id="path4529"
           inkscape:connector-curvature="0"
           sodipodi:nodetypes="cc" />
        <path
           style="fill:none;fill-rule:evenodd;stroke:#ffffff;stroke-width:1px;stroke-linecap:butt;stroke-linejoin:miter;stroke-opacity:1"
           d="m 93.5,52 0,32"
           id="path4531"
           inkscape:connector-curvature="0"
           sodipodi:nodetypes="cc" />
        <path
           style="fill:none;fill-rule:evenodd;stroke:#ffffff;stroke-width:1px;stroke-linecap:butt;stroke-linejoin:miter;stroke-opacity:1"
           d="m 83,62.5 32,0"
           id="path4617"
           inkscape:connector-curvature="0" />
        <path
           style="fill:none;fill-rule:evenodd;stroke:#ffffff;stroke-width:1px;stroke-linecap:butt;stroke-linejoin:miter;stroke-opacity:1"
           d="m 83,73.5 32,0"
           id="path4619"
           inkscape:connector-curvature="0" />
      </g>
      <g
         style="stroke:#ffffff;stroke-opacity:1"
         id="g4637">
        <path
           sodipodi:nodetypes="cc"
           style="fill:none;fill-rule:evenodd;stroke:#ffffff;stroke-width:1px;stroke-linecap:butt;stroke-linejoin:miter;stroke-opacity:1"
           d="m 57.5,52 0,32"
           id="path4501"
           inkscape:connector-curvature="0" />
        <path
           sodipodi:nodetypes="cc"
           style="fill:none;fill-rule:evenodd;stroke:#ffffff;stroke-width:1px;stroke-linecap:butt;stroke-linejoin:miter;stroke-opacity:1"
           d="m 70.5,52 0,32"
           id="path4503"
           inkscape:connector-curvature="0" />
        <path
           sodipodi:nodetypes="cc"
           inkscape:connector-curvature="0"
           id="path4621"
           d="m 46,62.5 36,0"
           style="fill:none;fill-rule:evenodd;stroke:#ffffff;stroke-width:1px;stroke-linecap:butt;stroke-linejoin:miter;stroke-opacity:1" />
        <path
           sodipodi:nodetypes="cc"
           inkscape:connector-curvature="0"
           id="path4623"
           d="m 46,73.5 36,0"
           style="fill:none;fill-rule:evenodd;stroke:#ffffff;stroke-width:1px;stroke-linecap:butt;stroke-linejoin:miter;stroke-opacity:1" />
      </g>
    </g>
    <g
       style="opacity:0.3"
       id="g4690">
      <path
         style="font-style:normal;font-variant:normal;font-weight:bold;font-stretch:normal;font-size:medium;line-height:125%;font-family:'Roboto Mono';-inkscape-font-specification:'Roboto Mono, Bold';text-align:start;letter-spacing:0px;word-spacing:0px;writing-mode:lr-tb;text-anchor:start;fill:#4e342e;fill-opacity:1;stroke:none;stroke-width:1px;stroke-linecap:butt;stroke-linejoin:miter;stroke-opacity:1"
         id="path4305"
         d="M 35,27.916208 28.34898,44 24.91202,44 31.57478,28.806318 23,28.806318 23,26 l 12,0 0,1.916208 z"
         inkscape:connector-curvature="0" />
      <path
         style="font-style:normal;font-variant:normal;font-weight:bold;font-stretch:normal;font-size:medium;line-height:125%;font-family:'Roboto Mono';-inkscape-font-specification:'Roboto Mono, Bold';text-align:start;letter-spacing:0px;word-spacing:0px;writing-mode:lr-tb;text-anchor:start;fill:#4e342e;fill-opacity:1;stroke:none;stroke-width:1px;stroke-linecap:butt;stroke-linejoin:miter;stroke-opacity:1"
         id="path4308"
         d="m 69.619244,30.89706 q 0,1.2754 -0.663256,2.274064 -0.650972,0.986632 -1.793244,1.576202 1.301944,0.601606 2.063458,1.684494 Q 70,37.514708 70,38.97059 70,40.209894 69.533264,41.148396 69.078812,42.0869 68.268168,42.7246 67.469806,43.350268 66.376662,43.675134 65.28352,44 64.018424,44 62.741046,44 61.635618,43.675134 60.542478,43.350268 59.731832,42.7246 58.921188,42.0869 58.454454,41.148396 58,40.209894 58,38.97059 q 0,-0.721928 0.19652,-1.359628 0.208802,-0.649732 0.577278,-1.179142 0.368474,-0.541446 0.884338,-0.962568 0.528148,-0.433156 1.17912,-0.733958 -1.142272,-0.577538 -1.793244,-1.56417 -0.650972,-0.998664 -0.650972,-2.274064 0,-1.191176 0.417604,-2.093582 0.417606,-0.91444 1.154554,-1.540108 Q 60.714432,26.6377 61.73388,26.324866 62.765608,26 63.981576,26 q 1.215968,0 2.247696,0.324866 1.03173,0.312834 1.780962,0.938504 0.761516,0.625668 1.17912,1.540108 0.42989,0.902406 0.42989,2.093582 z m -3.046062,7.84492 q 0,-0.601604 -0.18422,-1.082888 -0.18422,-0.481284 -0.528146,-0.818182 -0.331628,-0.348932 -0.810646,-0.529412 -0.466736,-0.18048 -1.056296,-0.18048 -0.589558,0 -1.068576,0.18048 -0.466736,0.18046 -0.798364,0.529412 -0.331626,0.336898 -0.515862,0.818182 -0.18422,0.481284 -0.18422,1.082888 0,1.203208 0.7001,1.889036 0.700104,0.68583 1.891506,0.68583 0.564994,0 1.03173,-0.16846 0.466736,-0.18048 0.798362,-0.51738 0.34391,-0.336898 0.528148,-0.806148 0.19652,-0.481284 0.19652,-1.082888 z M 66.21699,31.053476 q 0,-0.529412 -0.15968,-0.962566 -0.15968,-0.433154 -0.454452,-0.733956 -0.282498,-0.312836 -0.700104,-0.481284 -0.40532,-0.16846 -0.921186,-0.16846 -1.044012,0 -1.609006,0.625668 -0.564996,0.62567 -0.564996,1.720588 0,0.529412 0.1474,0.974598 0.1474,0.433156 0.429888,0.74599 0.29478,0.312836 0.700102,0.493318 0.417606,0.16846 0.93347,0.16846 0.515866,0 0.921186,-0.16846 0.405324,-0.1805 0.68782,-0.493318 0.282498,-0.312834 0.429888,-0.74599 0.15968,-0.445186 0.15968,-0.974598 z"
         inkscape:connector-curvature="0" />
      <path
         style="font-style:normal;font-variant:normal;font-weight:bold;font-stretch:normal;font-size:medium;line-height:125%;font-family:'Roboto Mono';-inkscape-font-specification:'Roboto Mono, Bold';text-align:start;letter-spacing:0px;word-spacing:0px;writing-mode:lr-tb;text-anchor:start;fill:#4e342e;fill-opacity:1;stroke:none;stroke-width:1px;stroke-linecap:butt;stroke-linejoin:miter;stroke-opacity:1"
         id="path4314"
         d="m 61.900002,65.532062 1.812,0 q 1.368,0 2.028,-0.68583 0.66,-0.69786 0.66,-1.816844 0,-0.51738 -0.156,-0.938504 -0.144,-0.433154 -0.444,-0.733958 -0.3,-0.312832 -0.768,-0.481282 -0.456002,-0.16844 -1.068,-0.16844 -0.504,0 -0.948,0.1444 -0.432,0.1444 -0.768,0.421122 -0.324,0.264708 -0.516,0.649734 -0.192,0.385028 -0.192,0.86631 l -3.336,0 q 0,-1.070856 0.431998,-1.949198 0.444002,-0.878344 1.212002,-1.50401 0.768,-0.6377 1.799998,-0.986632 Q 62.692002,58 63.892,58 q 1.296002,0 2.376002,0.324866 1.08,0.312834 1.848,0.950536 0.768,0.625666 1.188,1.56417 0.432,0.92647 0.432,2.153744 0,0.565506 -0.168,1.118984 -0.168,0.541444 -0.492002,1.034758 -0.323998,0.493316 -0.803998,0.91444 -0.48,0.40909 -1.104,0.709892 0.732,0.264706 1.259998,0.673796 0.540002,0.409092 0.888002,0.938504 0.348,0.517378 0.515998,1.143048 0.168,0.625668 0.168,1.32353 0,1.227272 -0.468,2.189838 -0.468,0.962568 -1.284,1.624332 Q 67.432,75.31417 66.304,75.6631 65.188,76 63.891998,76 62.776,76 61.708,75.699196 60.652,75.386364 59.824,74.772726 58.996,74.147058 58.492,73.208556 58,72.270054 58,70.994652 l 3.336,0 q 0,0.505348 0.192,0.938502 0.192,0.421124 0.54,0.733958 0.36,0.300802 0.84,0.481284 0.48,0.16844 1.056,0.16844 1.272,0 1.992,-0.673798 0.72,-0.673796 0.72,-1.828876 0,-0.709892 -0.204,-1.21524 -0.204,-0.505346 -0.6,-0.830214 -0.384,-0.324866 -0.936,-0.481282 -0.54,-0.1564 -1.224,-0.1564 l -1.812,0 0,-2.598928 z"
         inkscape:connector-curvature="0" />
      <path
         style="font-style:normal;font-variant:normal;font-weight:bold;font-stretch:normal;font-size:medium;line-height:125%;font-family:'Roboto Mono';-inkscape-font-specification:'Roboto Mono, Bold';text-align:start;letter-spacing:0px;word-spacing:0px;writing-mode:lr-tb;text-anchor:start;fill:#4e342e;fill-opacity:1;stroke:none;stroke-width:1px;stroke-linecap:butt;stroke-linejoin:miter;stroke-opacity:1"
         id="path4311"
         d="m 102.35346,58 0,2.794352 -0.19334,0 q -1.3293,0 -2.356489,0.350808 -1.01511,0.350808 -1.74019,0.991936 -0.71299,0.64113 -1.13595,1.53629 -0.41087,0.895162 -0.51964,1.99597 0.27795,-0.302422 0.64049,-0.592744 0.36254,-0.302422 0.80966,-0.53226 0.45922,-0.241936 0.99094,-0.387096 0.53172,-0.14516 1.14804,-0.14516 1.256799,0 2.187309,0.483872 0.9426,0.471774 1.571,1.294354 0.6284,0.810484 0.93051,1.899194 Q 105,68.76613 105,69.96371 q 0,1.282258 -0.41088,2.383064 -0.41087,1.100806 -1.1722,1.91129 -0.76133,0.810486 -1.84894,1.282258 Q 100.48036,76 99.12689,76 97.71299,76 96.57704,75.479838 95.44109,74.947582 94.64351,74.01613 93.858,73.084678 93.422957,71.814516 92.999999,70.53226 92.999999,69.02016 l 0,-1.294352 q 0,-2.092742 0.567971,-3.870968 0.56798,-1.790324 1.69185,-3.084678 1.12387,-1.30645 2.79154,-2.032258 Q 99.71903,58 101.90634,58 l 0.44713,0 z m -3.335339,8.709676 q -0.90635,0 -1.60725,0.48387 -0.68883,0.48387 -1.03928,1.245968 l 0,0.991938 q 0,0.96774 0.19336,1.693548 0.20544,0.725806 0.56798,1.209676 0.36253,0.471776 0.858,0.71371 0.49547,0.241936 1.07553,0.241936 0.59214,0 1.075529,-0.241936 0.48338,-0.254032 0.82175,-0.689518 0.33837,-0.435482 0.51964,-1.028224 0.18126,-0.604838 0.18126,-1.318548 0,-0.71371 -0.18126,-1.318548 -0.18126,-0.604838 -0.51964,-1.040322 -0.33837,-0.447582 -0.83384,-0.689516 -0.483379,-0.254032 -1.111779,-0.254032 z"
         inkscape:connector-curvature="0" />
      <path
         style="font-style:normal;font-variant:normal;font-weight:bold;font-stretch:normal;font-size:medium;line-height:125%;font-family:'Roboto Mono';-inkscape-font-specification:'Roboto Mono, Bold';text-align:start;letter-spacing:0px;word-spacing:0px;writing-mode:lr-tb;text-anchor:start;fill:#4e342e;fill-opacity:1;stroke:none;stroke-width:1px;stroke-linecap:butt;stroke-linejoin:miter;stroke-opacity:1"
         id="path4317"
         d="m 23.466741,101.01219 1.01944,-9.012193 9.92426,0 0,2.878048 -7.11156,0 -0.4299,3.902438 q 0.38076,-0.219512 1.08086,-0.45122 0.7001,-0.231706 1.60902,-0.231706 1.28966,0 2.29682,0.414634 1.019448,0.40244 1.707268,1.170732 0.700102,0.768287 1.068576,1.878047 0.368474,1.10976 0.368474,2.5122 0,1.19512 -0.35619,2.26829 -0.356192,1.07317 -1.093142,1.89025 -0.73695,0.81707 -1.854666,1.29268 Q 30.578301,110 29.055281,110 q -1.15456,0 -2.23542,-0.34147 -1.06858,-0.34146 -1.9038,-1 -0.8352,-0.65853 -1.36334,-1.60975 -0.51588,-0.96342 -0.55272,-2.19512 l 3.3654,0 q 0.1228,1.15853 0.83522,1.79268 0.72466,0.63414 1.84236,0.63414 0.68782,0 1.16684,-0.25609 0.4913,-0.2561 0.78608,-0.70732 0.30706,-0.45122 0.44218,-1.07317 0.1474,-0.62195 0.1474,-1.34147 0,-0.70731 -0.1842,-1.29268 -0.172,-0.59756 -0.54042,-1.02439 -0.36848,-0.42683 -0.9212,-0.65854 -0.5527,-0.2317 -1.30194,-0.2317 -0.50358,0 -0.87206,0.0854 -0.36846,0.0854 -0.65096,0.21951 -0.2825,0.13414 -0.50358,0.31707 -0.2211,0.17072 -0.41762,0.36586 l -2.7267,-0.67074 z"
         inkscape:connector-curvature="0" />
      <path
         style="font-style:normal;font-variant:normal;font-weight:bold;font-stretch:normal;font-size:medium;line-height:125%;font-family:'Roboto Mono';-inkscape-font-specification:'Roboto Mono, Bold';text-align:start;letter-spacing:0px;word-spacing:0px;writing-mode:lr-tb;text-anchor:start;fill:#4e342e;fill-opacity:1;stroke:none;stroke-width:1px;stroke-linecap:butt;stroke-linejoin:miter;stroke-opacity:1"
         id="path4321"
         d="m 69.619244,96.897053 q 0,1.275404 -0.663256,2.274065 -0.650972,0.986632 -1.793244,1.576202 1.301944,0.60161 2.063458,1.68449 Q 70,103.5147 70,104.97058 q 0,1.23931 -0.466736,2.17781 -0.454452,0.9385 -1.265096,1.57621 -0.798362,0.62566 -1.891506,0.95053 Q 65.28352,110 64.018424,110 q -1.277378,0 -2.382806,-0.32487 -1.09314,-0.32487 -1.903786,-0.95053 -0.810644,-0.63771 -1.277378,-1.57621 Q 58,106.20989 58,104.97058 q 0,-0.72192 0.19652,-1.35962 0.208802,-0.64973 0.577278,-1.17915 0.368474,-0.54144 0.884338,-0.96256 0.528148,-0.43316 1.17912,-0.73396 -1.142272,-0.57754 -1.793244,-1.564172 -0.650972,-0.998661 -0.650972,-2.274065 0,-1.191176 0.417604,-2.093582 0.417606,-0.91444 1.154554,-1.540106 0.749234,-0.625668 1.768682,-0.938504 1.031728,-0.324866 2.247696,-0.324866 1.215968,0 2.247696,0.324866 1.03173,0.312836 1.780962,0.938504 0.761516,0.625666 1.17912,1.540106 0.42989,0.902406 0.42989,2.093582 z m -3.046062,7.844917 q 0,-0.6016 -0.18422,-1.08288 -0.18422,-0.48129 -0.528146,-0.81818 -0.331628,-0.34893 -0.810646,-0.52942 -0.466736,-0.18048 -1.056296,-0.18048 -0.589558,0 -1.068576,0.18048 -0.466736,0.18048 -0.798364,0.52942 -0.331626,0.33689 -0.515862,0.81818 -0.18422,0.48128 -0.18422,1.08288 0,1.20321 0.7001,1.88904 0.700104,0.68583 1.891506,0.68583 0.564994,0 1.03173,-0.16846 0.466736,-0.18048 0.798362,-0.51738 0.34391,-0.3369 0.528148,-0.80615 0.19652,-0.48128 0.19652,-1.08289 z M 66.21699,97.053471 q 0,-0.529412 -0.15968,-0.962566 -0.15968,-0.433156 -0.454452,-0.733958 -0.282498,-0.312836 -0.700104,-0.481284 -0.40532,-0.16846 -0.921186,-0.16846 -1.044012,0 -1.609006,0.62567 -0.564996,0.625668 -0.564996,1.720588 0,0.529412 0.1474,0.9746 0.1474,0.433154 0.429888,0.74599 0.29478,0.312827 0.700102,0.493317 0.417606,0.16846 0.93347,0.16846 0.515866,0 0.921186,-0.16846 0.405324,-0.18048 0.68782,-0.493317 0.282498,-0.312836 0.429888,-0.74599 0.15968,-0.445188 0.15968,-0.9746 z"
         inkscape:connector-curvature="0" />
    </g>
    <g
       transform="matrix(1.9999999,0,0,1.9999999,229.99999,-68.151388)"
       id="g4456">
      <path
         style="font-style:normal;font-variant:normal;font-weight:bold;font-stretch:normal;font-size:54.32863617px;line-height:125%;font-family:'Roboto Mono';-inkscape-font-specification:'Roboto Mono, Bold';text-align:start;letter-spacing:0px;word-spacing:0px;writing-mode:lr-tb;text-anchor:start;opacity:0.6;fill:#ffffff;fill-opacity:1;stroke:none;stroke-width:1px;stroke-linecap:butt;stroke-linejoin:miter;stroke-opacity:1"
         id="path4698"
         d="m -77.112463,73.580596 q 0,-0.667855 -0.316109,-1.175424 -0.289767,-0.507569 -1.08004,-0.934995 -0.763931,-0.454141 -2.054711,-0.828139 -1.290781,-0.373998 -3.266465,-0.747997 -2.502533,-0.507569 -4.583586,-1.255565 -2.054711,-0.774711 -3.529889,-1.843278 -1.475177,-1.09528 -2.318136,-2.51113 -0.816615,-1.415851 -0.816615,-3.259128 0,-1.789849 0.842958,-3.419413 0.842959,-1.629563 2.423505,-2.858415 1.580547,-1.228851 3.845999,-1.950133 2.26545,-0.721282 5.110435,-0.721282 2.976697,0 5.347517,0.721282 2.370821,0.694569 4.004053,1.950133 1.659574,1.228852 2.528876,2.938558 0.8693,1.709706 0.8693,3.713268 l -7.323201,0 q 0,-1.682992 -1.343465,-2.804986 -1.343465,-1.14871 -4.08308,-1.14871 -2.555218,0 -3.872341,0.934996 -1.29078,0.934996 -1.29078,2.297418 0,0.64114 0.263425,1.202137 0.263424,0.534283 0.921986,0.988424 0.684904,0.427427 1.843972,0.801425 1.159067,0.347284 2.950354,0.614426 2.58156,0.427426 4.794326,1.09528 2.212766,0.667854 3.819656,1.73642 1.606889,1.041853 2.502532,2.56456 0.921986,1.495993 0.921986,3.579697 0,1.92342 -0.921986,3.552984 -0.895643,1.602849 -2.58156,2.778272 -1.659574,1.175423 -4.030395,1.843277 -2.37082,0.64114 -5.294833,0.64114 -3.213779,0 -5.689969,-0.854853 -2.449848,-0.854853 -4.109422,-2.217275 -1.659574,-1.389136 -2.528876,-3.125557 Q -96,74.114879 -96,72.351744 l 6.98075,0 q 0.07902,1.175423 0.632218,2.030276 0.553192,0.828139 1.422493,1.362422 0.8693,0.507569 1.975684,0.747997 1.132725,0.240427 2.318135,0.240427 2.713273,0 4.135765,-0.881568 1.422492,-0.881566 1.422492,-2.270702 z"
         inkscape:connector-curvature="0" />
      <path
         inkscape:connector-curvature="0"
         d="m -77.112463,73.080596 q 0,-0.667855 -0.316109,-1.175424 -0.289767,-0.507569 -1.08004,-0.934995 -0.763931,-0.454141 -2.054711,-0.828139 -1.290781,-0.373998 -3.266465,-0.747997 -2.502533,-0.507569 -4.583586,-1.255565 -2.054711,-0.774711 -3.529889,-1.843278 -1.475177,-1.09528 -2.318136,-2.51113 -0.816615,-1.415851 -0.816615,-3.259128 0,-1.789849 0.842958,-3.419413 0.842959,-1.629563 2.423505,-2.858415 1.580547,-1.228851 3.845999,-1.950133 2.26545,-0.721282 5.110435,-0.721282 2.976697,0 5.347517,0.721282 2.370821,0.694569 4.004053,1.950133 1.659574,1.228852 2.528876,2.938558 0.8693,1.709706 0.8693,3.713268 l -7.323201,0 q 0,-1.682992 -1.343465,-2.804986 -1.343465,-1.14871 -4.08308,-1.14871 -2.555218,0 -3.872341,0.934996 -1.29078,0.934996 -1.29078,2.297418 0,0.64114 0.263425,1.202137 0.263424,0.534283 0.921986,0.988424 0.684904,0.427427 1.843972,0.801425 1.159067,0.347284 2.950354,0.614426 2.58156,0.427426 4.794326,1.09528 2.212766,0.667854 3.819656,1.73642 1.606889,1.041853 2.502532,2.56456 0.921986,1.495993 0.921986,3.579697 0,1.92342 -0.921986,3.552984 -0.895643,1.602849 -2.58156,2.778272 -1.659574,1.175423 -4.030395,1.843277 -2.37082,0.64114 -5.294833,0.64114 -3.213779,0 -5.689969,-0.854853 -2.449848,-0.854853 -4.109422,-2.217275 -1.659574,-1.389136 -2.528876,-3.125557 Q -96,73.614879 -96,71.851744 l 6.98075,0 q 0.07902,1.175423 0.632218,2.030276 0.553192,0.828139 1.422493,1.362422 0.8693,0.507569 1.975684,0.747997 1.132725,0.240427 2.318135,0.240427 2.713273,0 4.135765,-0.881568 1.422492,-0.881566 1.422492,-2.270702 z"
         id="path4365"
         style="font-style:normal;font-variant:normal;font-weight:bold;font-stretch:normal;font-size:54.32863617px;line-height:125%;font-family:'Roboto Mono';-inkscape-font-specification:'Roboto Mono, Bold';text-align:start;letter-spacing:0px;word-spacing:0px;writing-mode:lr-tb;text-anchor:start;fill:url(#linearGradient4243);fill-opacity:1;stroke:none;stroke-width:1px;stroke-linecap:butt;stroke-linejoin:miter;stroke-opacity:1" />
      <path
         inkscape:connector-curvature="0"
         style="font-style:normal;font-variant:normal;font-weight:bold;font-stretch:normal;font-size:54.32863617px;line-height:125%;font-family:'Roboto Mono';-inkscape-font-specification:'Roboto Mono, Bold';text-align:start;letter-spacing:0px;word-spacing:0px;writing-mode:lr-tb;text-anchor:start;opacity:0.15;fill:#000000;fill-opacity:1;stroke:none;stroke-width:1px;stroke-linecap:butt;stroke-linejoin:miter;stroke-opacity:1"
         d="m -82.855469,51.575698 c -1.896656,0 -3.599074,0.239848 -5.109375,0.720703 -1.5103,0.480855 -2.793958,1.131938 -3.847656,1.951172 -1.053698,0.819234 -1.859903,1.771046 -2.421875,2.857422 -0.561972,1.086376 -0.84375,2.226689 -0.84375,3.419922 0,0.349291 0.02828,0.683497 0.07227,1.009765 0.113413,-0.836981 0.367137,-1.648025 0.771484,-2.429687 0.561972,-1.086376 1.368177,-2.038188 2.421875,-2.857422 1.053698,-0.819234 2.337356,-1.470317 3.847656,-1.951172 1.510297,-0.480855 3.212715,-0.720703 5.109371,-0.720703 1.984465,0 3.767109,0.239848 5.347657,0.720703 1.580547,0.463046 2.915084,1.114128 4.003906,1.951172 1.106383,0.819234 1.949763,1.797696 2.529297,2.9375 0.278552,0.547845 0.486193,1.119788 0.630859,1.712891 l 0.238281,0 c 0,-1.335708 -0.289606,-2.573087 -0.86914,-3.712891 -0.579534,-1.139804 -1.422914,-2.118266 -2.529297,-2.9375 -1.088822,-0.837044 -2.423359,-1.488126 -4.003906,-1.951172 -1.580548,-0.480855 -3.363192,-0.720703 -5.347657,-0.720703 z m -4.957031,9.634766 c -0.124098,0.303829 -0.205078,0.621874 -0.205078,0.966796 0,0.427427 0.08806,0.829127 0.263672,1.203126 0.175616,0.356188 0.482834,0.68552 0.921875,0.988281 0.456602,0.284951 1.071038,0.551449 1.84375,0.800781 0.772712,0.231523 1.755027,0.43714 2.949219,0.615234 1.72104,0.284951 3.319744,0.648514 4.794921,1.09375 1.475178,0.445236 2.749053,1.025904 3.820313,1.738282 1.07126,0.694568 1.904857,1.549315 2.501953,2.564453 0.456459,0.740639 0.73994,1.590157 0.857422,2.546875 0.04061,-0.316657 0.06445,-0.63915 0.06445,-0.96875 0,-1.389137 -0.307218,-2.580797 -0.921875,-3.578125 -0.597096,-1.015138 -1.430693,-1.869885 -2.501953,-2.564453 -1.07126,-0.712378 -2.345135,-1.293046 -3.820313,-1.738282 -1.475177,-0.445236 -3.073881,-0.808799 -4.794921,-1.09375 -1.194192,-0.178094 -2.176507,-0.383711 -2.949219,-0.615234 -0.772712,-0.249332 -1.387148,-0.51583 -1.84375,-0.800781 -0.439041,-0.302761 -0.746259,-0.632093 -0.921875,-0.988281 -0.02566,-0.05464 -0.03669,-0.114146 -0.05859,-0.169922 z M -96,71.851089 c 0,0.666511 0.100557,1.333488 0.28125,2 l 6.699219,0 c 0.05269,0.783615 0.264018,1.461348 0.632812,2.03125 0.368795,0.552092 0.842341,1.005139 1.421875,1.361328 0.579534,0.338379 1.238974,0.587762 1.976563,0.748047 0.75515,0.160285 1.528086,0.240234 2.318359,0.240234 1.808848,0 3.186438,-0.293148 4.134766,-0.880859 0.948328,-0.587712 1.421875,-1.343441 1.421875,-2.269532 0,-0.373649 -0.08986,-0.701608 -0.238281,-1 -0.225778,0.483597 -0.60589,0.911509 -1.183594,1.269532 -0.948328,0.587711 -2.325918,0.880859 -4.134766,0.880859 -0.790273,0 -1.563209,-0.07995 -2.318359,-0.240234 -0.737589,-0.160285 -1.397029,-0.409668 -1.976563,-0.748047 -0.579534,-0.356189 -1.05308,-0.809236 -1.421875,-1.361328 -0.368794,-0.569902 -0.580127,-1.247635 -0.632812,-2.03125 l -6.980469,0 z"
         id="text4354" />
      <path
         inkscape:connector-curvature="0"
         style="font-style:normal;font-variant:normal;font-weight:bold;font-stretch:normal;font-size:54.32863617px;line-height:125%;font-family:'Roboto Mono';-inkscape-font-specification:'Roboto Mono, Bold';text-align:start;letter-spacing:0px;word-spacing:0px;writing-mode:lr-tb;text-anchor:start;opacity:0.3;fill:#000000;fill-opacity:1;stroke:none;stroke-width:1px;stroke-linecap:butt;stroke-linejoin:miter;stroke-opacity:1"
         d="m -82.855469,51.575698 c -1.896656,0 -3.599074,0.239848 -5.109375,0.720703 -1.5103,0.480855 -2.793958,1.131938 -3.847656,1.951172 -1.053698,0.819234 -1.859903,1.771046 -2.421875,2.857422 -0.561972,1.086376 -0.84375,2.226689 -0.84375,3.419922 0,0.175746 0.01816,0.3418 0.0293,0.511719 0.06684,-1.015892 0.330017,-1.995155 0.814453,-2.931641 0.561972,-1.086376 1.368177,-2.038188 2.421875,-2.857422 1.053698,-0.819234 2.337356,-1.470317 3.847656,-1.951172 1.510298,-0.480855 3.212716,-0.720703 5.109372,-0.720703 1.984465,0 3.767108,0.239848 5.347657,0.720703 1.580547,0.463046 2.915084,1.114128 4.003906,1.951172 1.106383,0.819234 1.949763,1.797696 2.529297,2.9375 0.431939,0.84952 0.700541,1.754545 0.810547,2.712891 l 0.05859,0 c 0,-1.335708 -0.289606,-2.573087 -0.86914,-3.712891 -0.579534,-1.139804 -1.422914,-2.118266 -2.529297,-2.9375 -1.088819,-0.837044 -2.423356,-1.488126 -4.003903,-1.951172 -1.580548,-0.480855 -3.363192,-0.720703 -5.347657,-0.720703 z m -12.193359,9.460938 c 0.01601,0.244242 0.04302,0.482643 0.08203,0.714843 -0.0378,-0.232513 -0.06605,-0.470972 -0.08203,-0.714843 z m 15.517578,-3.445313 c 0.282084,0.143589 0.535855,0.310502 0.759766,0.501953 -0.223911,-0.191451 -0.477597,-0.35839 -0.759766,-0.501953 z m -8.429688,3.128906 c -0.02639,0.1499 -0.05664,0.298392 -0.05664,0.457031 0,0.427427 0.08806,0.829127 0.263672,1.203126 0.175616,0.356187 0.482834,0.68552 0.921875,0.988281 0.456602,0.284951 1.071038,0.551449 1.84375,0.800781 0.772712,0.231523 1.755027,0.43714 2.949219,0.615234 1.72104,0.284951 3.319744,0.648514 4.794921,1.09375 1.475178,0.445236 2.749053,1.025904 3.820313,1.738282 1.07126,0.694568 1.904857,1.549315 2.501953,2.564453 0.535129,0.868288 0.823373,1.893307 0.892578,3.058593 0.01,-0.160084 0.0293,-0.317208 0.0293,-0.480468 0,-1.389137 -0.307218,-2.580797 -0.921875,-3.578125 -0.597096,-1.015138 -1.430693,-1.869885 -2.501953,-2.564453 -1.07126,-0.712378 -2.345135,-1.293046 -3.820313,-1.738282 -1.475177,-0.445236 -3.073881,-0.808799 -4.794921,-1.09375 -1.194192,-0.178094 -2.176507,-0.383711 -2.949219,-0.615234 -0.772712,-0.249332 -1.387148,-0.51583 -1.84375,-0.800781 -0.439041,-0.302761 -0.746259,-0.632093 -0.921875,-0.988281 -0.09885,-0.210512 -0.163822,-0.432718 -0.207032,-0.660157 z m -6.990234,1.115235 c 0.03704,0.204452 0.07966,0.406565 0.134766,0.601562 -0.05377,-0.195946 -0.09879,-0.396315 -0.134766,-0.601562 z m 0.214844,0.851562 c 0.04783,0.145023 0.09213,0.292075 0.15039,0.431641 -0.05748,-0.140112 -0.103553,-0.285946 -0.15039,-0.431641 z m 1.476562,2.433594 c 0.386356,0.418522 0.824681,0.808734 1.316407,1.173828 -0.491726,-0.365093 -0.929995,-0.755648 -1.316407,-1.173828 z m 1.316407,1.173828 c 0.402694,0.291698 0.846979,0.563414 1.314453,0.822266 -0.467835,-0.259148 -0.911397,-0.530306 -1.314453,-0.822266 z M -96,71.851089 c 0,0.332975 0.02912,0.667025 0.07422,1 l 6.90625,0 c 0.05269,0.783615 0.264018,1.461348 0.632812,2.03125 0.368795,0.552092 0.842341,1.005139 1.421875,1.361328 0.579534,0.338379 1.238974,0.587762 1.976563,0.748047 0.75515,0.160285 1.528086,0.240234 2.318359,0.240234 1.808848,0 3.186438,-0.293148 4.134766,-0.880859 0.948328,-0.587712 1.421875,-1.343441 1.421875,-2.269532 0,-0.182536 -0.02903,-0.351049 -0.06445,-0.515625 -0.141725,0.706141 -0.582542,1.304937 -1.357422,1.785157 -0.948328,0.587711 -2.325918,0.880859 -4.134766,0.880859 -0.790273,0 -1.563209,-0.07995 -2.318359,-0.240234 -0.737589,-0.160285 -1.397029,-0.409668 -1.976563,-0.748047 -0.579534,-0.356189 -1.05308,-0.809236 -1.421875,-1.361328 -0.368794,-0.569902 -0.580127,-1.247635 -0.632812,-2.03125 l -6.980469,0 z m 25.96875,1.408203 c -0.01687,0.260578 -0.04775,0.516849 -0.08984,0.769531 0.0433,-0.252035 0.07296,-0.509077 0.08984,-0.769531 z m -25.777344,0.248047 c 0.02676,0.119193 0.06122,0.238228 0.09375,0.357421 -0.03215,-0.119299 -0.06731,-0.238122 -0.09375,-0.357421 z m 25.675782,0.589843 c -0.04155,0.235668 -0.09387,0.468818 -0.158204,0.697266 0.06598,-0.227971 0.115404,-0.461907 0.158204,-0.697266 z m -25.449219,0.208985 c 0.03509,0.105412 0.06977,0.210994 0.109375,0.316406 -0.03937,-0.105597 -0.07459,-0.210809 -0.109375,-0.316406 z m 25.203125,0.751953 c -0.0532,0.16349 -0.106292,0.326812 -0.171875,0.486328 0.06654,-0.159227 0.117504,-0.323222 0.171875,-0.486328 z m -24.777344,0.320312 c 0.289767,0.578807 0.644927,1.127512 1.066406,1.648438 -0.421096,-0.520787 -0.776639,-1.069631 -1.066406,-1.648438 z m 3.408203,3.775391 c 0.517676,0.344402 1.091389,0.652256 1.701172,0.9375 -0.609431,-0.28492 -1.183723,-0.593488 -1.701172,-0.9375 z m 4.513672,1.941406 c 0.886863,0.213714 1.835909,0.356497 2.845703,0.427735 -1.010063,-0.07135 -1.958571,-0.213906 -2.845703,-0.427735 z"
         id="text4345" />
    </g>
  </g>
</svg>
