<?xml version="1.0" encoding="UTF-8" standalone="no"?>
<svg
   xmlns:dc="http://purl.org/dc/elements/1.1/"
   xmlns:cc="http://creativecommons.org/ns#"
   xmlns:rdf="http://www.w3.org/1999/02/22-rdf-syntax-ns#"
   xmlns:svg="http://www.w3.org/2000/svg"
   xmlns="http://www.w3.org/2000/svg"
   xmlns:xlink="http://www.w3.org/1999/xlink"
   xmlns:sodipodi="http://sodipodi.sourceforge.net/DTD/sodipodi-0.dtd"
   xmlns:inkscape="http://www.inkscape.org/namespaces/inkscape"
   version="1.1"
   width="16"
   height="16"
   id="svg4372"
   inkscape:version="0.91 r13725"
   sodipodi:docname="com.github.parnold-x.sudoku.svg">
  <sodipodi:namedview
     pagecolor="#ffffff"
     bordercolor="#666666"
     borderopacity="1"
     objecttolerance="10"
     gridtolerance="10"
     guidetolerance="10"
     inkscape:pageopacity="0"
     inkscape:pageshadow="2"
     inkscape:window-width="1920"
     inkscape:window-height="1017"
     id="namedview23"
     showgrid="true"
     inkscape:zoom="11.313708"
     inkscape:cx="7.2383207"
     inkscape:cy="1.2321998"
     inkscape:window-x="0"
     inkscape:window-y="30"
     inkscape:window-maximized="1"
     inkscape:current-layer="svg4372"
     showborder="true">
    <inkscape:grid
       type="xygrid"
       id="grid4151"
       empspacing="4"
       enabled="false" />
    <inkscape:grid
       type="xygrid"
       id="grid4153"
       spacingy="0.5"
       spacingx="0.5"
       empspacing="4"
       color="#ff00ff"
       opacity="0.2627451"
       empcolor="#ff3fff"
       empopacity="0"
       enabled="false" />
  </sodipodi:namedview>
  <defs
     id="defs4374">
    <linearGradient
       x1="23.99999"
       y1="4.999989"
       x2="23.99999"
       y2="43"
       id="linearGradient3304"
       xlink:href="#linearGradient3924-4-8"
       gradientUnits="userSpaceOnUse"
       gradientTransform="matrix(0.2972973,0,0,0.2972973,0.86486763,0.86486875)" />
    <linearGradient
       id="linearGradient3924-4-8">
      <stop
         id="stop3926-0-4"
         style="stop-color:#ffffff;stop-opacity:1"
         offset="0" />
      <stop
         id="stop3928-6-8"
         style="stop-color:#ffffff;stop-opacity:0.23529412"
         offset="0.06316455" />
      <stop
         id="stop3930-2-1"
         style="stop-color:#ffffff;stop-opacity:0.15686275"
         offset="0.95056331" />
      <stop
         id="stop3932-9-0"
         style="stop-color:#ffffff;stop-opacity:0.39215687"
         offset="1" />
    </linearGradient>
    <linearGradient
       id="linearGradient2867-449-88-871-390-598-476-591-434-148-57-177-8-3-3-6-4-8-8-8-5">
      <stop
         id="stop3750-1-0-7-6-6-1-3-9-3"
         style="stop-color:#95a3ab;stop-opacity:1"
         offset="0" />
      <stop
         id="stop3752-3-7-4-0-32-8-923-0-7"
         style="stop-color:#667885;stop-opacity:1"
         offset="0.26238" />
      <stop
         id="stop3754-1-8-5-2-7-6-7-1-9"
         style="stop-color:#485a6c;stop-opacity:1"
         offset="0.704952" />
      <stop
         id="stop3756-1-6-2-6-6-1-96-6-0"
         style="stop-color:#273445;stop-opacity:1"
         offset="1" />
    </linearGradient>
    <radialGradient
       cx="6.7304144"
       cy="9.9571075"
       r="12.671875"
       fx="6.2001843"
       fy="9.9571075"
       id="radialGradient4370"
       xlink:href="#linearGradient2867-449-88-871-390-598-476-591-434-148-57-177-8-3-3-6-4-8-8-8-5"
       gradientUnits="userSpaceOnUse"
       gradientTransform="matrix(0,3.1658508,-3.8866533,0,46.976839,-26.720326)" />
    <radialGradient
       gradientTransform="matrix(2.003784,0,0,1.4,27.98813,-17.4)"
       gradientUnits="userSpaceOnUse"
       xlink:href="#linearGradient3688-166-749-654"
       id="radialGradient2873-966-168-714"
       fy="43.5"
       fx="4.9929786"
       r="2.5"
       cy="43.5"
       cx="4.9929786" />
    <linearGradient
       id="linearGradient3688-166-749-654">
      <stop
         offset="0"
         style="stop-color:#181818;stop-opacity:1"
         id="stop3088" />
      <stop
         offset="1"
         style="stop-color:#181818;stop-opacity:0"
         id="stop3090" />
    </linearGradient>
    <radialGradient
       gradientTransform="matrix(2.003784,0,0,1.4,-20.01187,-104.4)"
       gradientUnits="userSpaceOnUse"
       xlink:href="#linearGradient3688-166-749-654"
       id="radialGradient2875-742-326-419"
       fy="43.5"
       fx="4.9929786"
       r="2.5"
       cy="43.5"
       cx="4.9929786" />
    <linearGradient
       gradientUnits="userSpaceOnUse"
       xlink:href="#linearGradient3702-501-757-795"
       id="linearGradient2877-634-617-908"
       y2="39.999443"
       x2="25.058096"
       y1="47.027729"
       x1="25.058096" />
    <linearGradient
       id="linearGradient3702-501-757-795">
      <stop
         offset="0"
         style="stop-color:#181818;stop-opacity:0"
         id="stop3100" />
      <stop
         offset="0.5"
         style="stop-color:#181818;stop-opacity:1"
         id="stop3102" />
      <stop
         offset="1"
         style="stop-color:#181818;stop-opacity:0"
         id="stop3104" />
    </linearGradient>
    <radialGradient
       r="12.671875"
       fy="9.9571075"
       fx="6.2001843"
       cy="9.9571075"
       cx="6.7304144"
       gradientTransform="matrix(0,13.393984,-16.443533,0,196.90205,-114.89368)"
       gradientUnits="userSpaceOnUse"
       id="radialGradient4147"
       xlink:href="#linearGradient2867-449-88-871-390-598-476-591-434-148-57-177-8-3-3-6-4-8-8-8-5-3" />
    <linearGradient
       id="linearGradient2867-449-88-871-390-598-476-591-434-148-57-177-8-3-3-6-4-8-8-8-5-3">
      <stop
         id="stop3750-1-0-7-6-6-1-3-9-3-0"
         style="stop-color:#EFEBE9;stop-opacity:1"
         offset="0" />
      <stop
         id="stop3752-3-7-4-0-32-8-923-0-7-3"
         style="stop-color:#BCAAA4;stop-opacity:1"
         offset="0.26238" />
      <stop
         id="stop3754-1-8-5-2-7-6-7-1-9-0"
         style="stop-color:#8D6E63;stop-opacity:1"
         offset="0.704952" />
      <stop
         id="stop3756-1-6-2-6-6-1-96-6-0-9"
         style="stop-color:#6D4C41;stop-opacity:1"
         offset="1" />
    </linearGradient>
    <linearGradient
       y2="42.091705"
       x2="23.99999"
       y1="5.9093657"
       x1="23.99999"
       gradientTransform="matrix(1.4324324,0,0,1.4362832,-72.939928,-28.28189)"
       gradientUnits="userSpaceOnUse"
       id="linearGradient3904"
       xlink:href="#linearGradient4270" />
    <linearGradient
       id="linearGradient4270">
      <stop
         id="stop4272"
         style="stop-color:#ffffff;stop-opacity:1"
         offset="0" />
      <stop
         id="stop4274"
         style="stop-color:#ffffff;stop-opacity:0.23529412"
         offset="0.0348749" />
      <stop
         id="stop4276"
         style="stop-color:#ffffff;stop-opacity:0.15686275"
         offset="0.96216321" />
      <stop
         id="stop4278"
         style="stop-color:#ffffff;stop-opacity:0.39215687"
         offset="1" />
    </linearGradient>
    <linearGradient
       inkscape:collect="always"
       xlink:href="#linearGradient4237"
       id="linearGradient4243"
       x1="31.995493"
       y1="16.979605"
       x2="31.995493"
       y2="46.777725"
       gradientUnits="userSpaceOnUse"
       gradientTransform="matrix(0.26735096,0,0,0.26854149,-0.615379,-0.533333)" />
    <linearGradient
       inkscape:collect="always"
       id="linearGradient4237">
      <stop
         style="stop-color:#7a0000;stop-opacity:1"
         offset="0"
         id="stop4239" />
      <stop
         style="stop-color:#440606;stop-opacity:1"
         offset="1"
         id="stop4241" />
    </linearGradient>
    <radialGradient
       r="12.671875"
       fy="9.9571075"
       fx="6.2001843"
       cy="9.9571075"
       cx="6.7304144"
       gradientTransform="matrix(0,13.393984,-16.443533,0,192.40205,-119.39368)"
       gradientUnits="userSpaceOnUse"
       id="radialGradient4147-4"
       xlink:href="#linearGradient2867-449-88-871-390-598-476-591-434-148-57-177-8-3-3-6-4-8-8-8-5-3" />
  </defs>
  <metadata
     id="metadata4377">
    <rdf:RDF>
      <cc:Work
         rdf:about="">
        <dc:format>image/svg+xml</dc:format>
        <dc:type
           rdf:resource="http://purl.org/dc/dcmitype/StillImage" />
        <dc:title />
      </cc:Work>
    </rdf:RDF>
  </metadata>
  <g
     transform="matrix(0.99301849,0,0,1.0070306,-70.561553,-25.811107)"
     style="font-style:normal;font-variant:normal;font-weight:bold;font-stretch:normal;font-size:54.32863617px;line-height:125%;font-family:'Roboto Mono';-inkscape-font-specification:'Roboto Mono, Bold';text-align:start;letter-spacing:0px;word-spacing:0px;writing-mode:lr-tb;text-anchor:start;fill:#440606;fill-opacity:1;stroke:none;stroke-width:1px;stroke-linecap:butt;stroke-linejoin:miter;stroke-opacity:1"
     id="text4323" />
  <g
     id="g4214">
    <g
       id="g4197">
      <rect
         style="color:#000000;clip-rule:nonzero;display:inline;overflow:visible;visibility:visible;opacity:1;isolation:auto;mix-blend-mode:normal;color-interpolation:sRGB;color-interpolation-filters:linearRGB;solid-color:#000000;solid-opacity:1;fill:url(#radialGradient4147);fill-opacity:1;fill-rule:nonzero;stroke:none;stroke-width:0.99999994;stroke-linecap:butt;stroke-linejoin:miter;stroke-miterlimit:4;stroke-dasharray:none;stroke-dashoffset:0;stroke-opacity:1;marker:none;color-rendering:auto;image-rendering:auto;shape-rendering:auto;text-rendering:auto;enable-background:accumulate"
         id="rect5505-21-2"
         y="1.4999986"
         x="1.4999986"
         ry="1"
         rx="1"
         height="13.000003"
         width="13.000003" />
      <path
         inkscape:connector-curvature="0"
         style="opacity:0.05;fill:#ffffff;fill-opacity:1"
         d="m 3.2148438,1.5 c -0.061509,0.2222748 -0.1423361,0.4131258 -0.3476563,0.2734375 0.06299,-0.521941 -0.3673488,-0.093358 -0.042969,0.1269531 0.3623389,0.245937 -0.2935526,0.2295449 0.1328124,0.4042969 -0.1699899,0.01379 -0.03842,0.3324733 -0.25,0.3476563 C 2.4130413,2.3939058 2.2661913,2.497961 1.9257812,2.5625 1.2502003,2.561744 1.710208,1.9942073 2.140625,2.1601562 1.978289,2.3208933 1.9201119,2.4334795 2.1855469,2.2578125 2.1878469,1.9707375 2.0947701,1.669701 2.5175781,1.703125 2.4748737,1.601829 2.4252076,1.5547358 2.375,1.5253906 2.2841533,1.5371576 2.1907607,1.543816 2.109375,1.578125 2.09887,1.586445 2.088594,1.590441 2.078125,1.599609 1.9236898,1.7348613 1.7726794,1.9557734 1.671875,2.0117184 1.673475,1.9941374 1.669485,1.9876124 1.669925,1.9726554 1.571289,2.1277005 1.5,2.3018652 1.5,2.5 l 0,0.1738281 C 2.0123624,2.8130921 2.5681375,2.7991789 3.0878906,2.7246094 3.5084926,2.5626254 2.7540205,2.541322 3.1953125,2.3125 3.4989835,2.467007 4.0599679,2.0256171 3.5136719,1.9707031 c -0.09009,0.303691 -0.095803,-0.073317 -0.2675781,0.039063 -0.32135,0.487895 -0.1006049,-0.1670987 0.017578,-0.3242187 -0.0086,0.203119 0.9692753,0.2946861 0.5839843,0.4550781 0.09023,0.309531 0.5430974,-0.0032 0.7558594,-0.076172 0.01719,0.765673 1.0352277,0.1211636 0.9160156,0.6035157 -0.325027,0.171818 -0.8133938,0.1204849 -0.9042968,-0.1875 C 4.0998594,2.1169557 4.5686753,2.846164 4.4882812,3.109375 4.3332672,3.422284 4.1588936,3.8390061 3.7910156,4.1269531 3.4053896,4.1674831 3.9029291,3.908011 3.9550781,3.78125 c 0.223752,-0.117675 0.00353,-0.8228826 0.035156,-0.4472656 -0.175433,0.17068 -0.1216563,0.7492605 -0.4101563,0.4296875 0.09205,-0.760029 -1.3253146,0.4456046 -0.5097656,0.1035156 0.533934,-0.270051 0.3193711,0.3587426 0.5488281,0.5410156 0.247512,-0.260858 1.0112912,-0.3480412 0.9863282,0.074219 -0.0866,0.102221 0.1813453,0.352757 0.099609,0.609375 0.289818,-0.02994 0.3282078,0.032691 0.027344,0.1933593 -0.25851,0.3182581 -0.2956298,-0.6396598 -0.4179688,-0.3417968 -0.316506,0.57177 0.54759,0.6940641 0.84375,0.2832031 0.49252,-0.270294 -0.091997,-0.4337914 -0.1074219,-0.7871094 0.196148,0.04334 0.4879603,-0.6558754 0.5664063,-0.2089843 0.287389,0.236607 0.2925164,0.4461633 -0.1035156,0.5058593 0.42245,0.252829 -0.4322123,0.4860793 0.1210937,0.7070313 C 5.5314236,5.4437954 5.0782089,5.140409 5.1230469,5.59375 4.5509799,5.859019 4.0265916,5.3062345 3.4628906,5.5546875 3.4528306,5.3696215 3.1464596,5.2075244 3.2597656,5.5839844 3.6910416,5.8221794 4.3017692,5.8048183 4.7695312,5.9101562 4.8362412,5.8116762 4.8862425,6.18671 4.9140625,6.28125 4.5016315,5.843867 4.7374614,6.4692758 4.5683594,6.7460938 c 0.357574,0.247249 0.083161,-0.3698013 0.3398437,-0.2851563 -0.03915,0.400507 0.2159358,0.586371 0.6210938,0.515625 0.687767,-0.04483 -0.171406,-0.1203774 -0.28125,-0.2558594 C 5.4645539,6.3188351 5.0468395,6.415894 5.0546875,6.046875 5.1369875,5.937869 5.4952564,5.2120069 5.5683594,5.7167969 5.8021514,5.3636309 5.786848,5.8799094 6.03125,5.9589844 c 0.580843,-0.0286 0.1490003,0.4315021 -0.1679688,0.4394531 0.332826,0.181393 -0.2763289,0.3838797 -0.15625,-0.082031 0.3373651,-0.522941 -0.6106028,-0.5979843 -0.3574218,-0.083984 0.38891,0.112476 -0.1177753,0.5008246 0.1210937,0.4003906 0.478548,-0.01991 0.8062074,0.422747 0.9433594,0.875 C 6.2491715,7.6349675 6.2174925,7.809849 6.2265625,8 l -0.15625,0 C 6.0266325,7.91675 5.9712553,7.8579169 5.9101562,7.8574219 c -0.02813,-1.89e-4 -0.057761,0.012322 -0.087891,0.039063 0.0012,0.04158 6.69e-5,0.074838 -0.00195,0.1035156 l 0.15625,0 c 0.140643,0.114656 0.2531105,0.2439362 0.1953125,0.3007812 -0.417554,0.334257 0.3498604,-0.031922 0.5214844,0.125 C 6.6787294,8.7003653 7.040268,8.9515069 7.203125,8.6074219 7.672603,8.5776419 7.6046956,8.248584 7.3847656,8 l 0.09375,0 C 7.3810556,7.850455 6.9126089,7.6615458 6.7636719,7.6367188 6.2717619,7.4354667 7.2237924,6.9825353 6.5683594,7.1289062 6.6353194,6.8586703 6.155348,7.084011 6.109375,6.703125 6.093725,6.138946 6.437635,6.97699 6.625,6.703125 7.035069,6.366526 7.5674874,6.8864487 7.7558594,7.3242188 7.5529684,7.1245047 6.9880924,7.3426239 7.0996094,6.9824219 7.2630864,6.5311249 6.8808139,6.9997692 6.8417969,6.7851562 6.6262039,6.5700722 7.045317,7.327058 7.09375,7.453125 7.304357,7.894641 6.9576433,7.1969985 7.2226562,7.4609375 7.1047452,7.9031725 7.725507,7.763189 8,7.765625 L 8,7.8964844 C 8.16309,7.8637144 8.309727,7.867082 8.40625,8 L 8.7402344,8 C 8.4652244,7.887765 7.9832075,7.5526402 8.1953125,7.5507812 8.5019855,7.8172793 8.736698,7.5512204 8.96875,7.4589844 9.403072,7.7654914 8.7920191,7.6289994 8.8613281,7.8964844 8.8961581,7.9441344 8.9115925,7.97737 8.9140625,8 l -0.099609,0 c 0.117149,0.05672 0.1468824,0.2942066 0.3964844,0.3066406 0.645757,0.277314 -0.244854,0.1995576 -0.421875,-0.037109 C 8.4305495,7.7156002 8.4311342,8.4993064 8.6132812,8.7402344 8.7927893,9.1537874 8.1139574,8.6419179 8.3027344,8.4199219 8.2199044,8.2998629 8.2899144,8.131634 8.3964844,8 L 8.1972656,8 C 8.1960656,8.103865 8.113648,8.1704254 8,8.2246094 L 8,8.1386719 C 7.9935,8.1168819 7.9920937,8.0918631 7.9960938,8.0644531 7.9554538,8.0327631 7.9244075,8.01346 7.8984375,8 L 7.8417969,8 C 7.7975369,7.97014 7.7542689,7.93805 7.7167969,7.9375 7.6897169,7.937122 7.6649713,7.95364 7.6445312,8 l 0.171875,0 C 7.7890863,8.06929 7.911736,8.3086404 8,8.4746094 L 8,8.453125 c 0.148341,0.02117 0.2330384,0.1017652 0.00586,0.1914062 -0.002,1.31e-4 -0.00376,-1.739e-4 -0.00586,0 L 8,8.6328125 C 7.731294,8.7126125 7.2623547,8.5696682 7.4960938,9.0507812 7.2325798,8.9335593 6.6836927,8.9190996 6.3242188,8.6660156 6.1510438,8.8184096 5.9365631,8.6421808 5.8613281,8.2773438 6.1050021,8.1240558 5.9132496,7.9238717 5.6503906,8.1835938 5.6541906,8.1285538 5.6346825,8.059833 5.6015625,8 l 0.015625,0 C 5.5667275,7.95092 5.514685,7.9052394 5.46875,7.9121094 5.44007,7.9164094 5.4138381,7.94504 5.3925781,8 L 5.3789062,8 C 5.5780863,8.09925 5.6620507,8.6492368 5.3398438,8.6367188 5.2813337,8.2924857 5.0489606,8.2260569 4.7128906,8.2480469 4.7281306,8.1431079 4.7814983,8.066278 4.8476562,8 l 0.082031,0 C 4.8677075,7.888862 4.5207576,7.7178939 4.7285156,7.6542969 c 0.354741,0.338869 0.577512,0.061205 0.46875,-0.3300781 C 5.1937656,7.1507907 5.1834125,7.0916581 5.1640625,7.0957031 5.1146025,7.1060431 5.00916,7.5352315 4.828125,7.5546875 4.58125,7.3381135 4.3128346,8.0064798 4.3535156,7.5117188 3.8210296,7.2286427 4.196021,7.706931 4.328125,8 L 4.369141,8 C 4.378541,8.01871 4.386802,8.03775 4.394532,8.0625 4.4345713,8.03948 4.4646912,8.01932 4.4882812,8 L 4.7109375,8 C 4.7030375,8.0094 4.69745,8.0199169 4.6875,8.0292969 4.3251,8.1602669 4.6443433,8.9672905 4.2226562,8.6796875 3.7559192,8.4467085 4.5311473,8.2072165 4.1289062,8.1171875 3.9783162,8.2101675 3.8548455,8.123614 3.7734375,8 l 0.125,0 C 3.8747875,7.97634 3.8398546,7.9507512 3.7910156,7.9257812 3.7079056,7.9016813 3.6587265,7.8943775 3.6328125,7.8984375 3.5902725,7.9051375 3.6117844,7.945194 3.6464844,8 L 2.9980469,8 c 0.0208,0.242466 0.057047,0.4829548 0.2539062,0.6523438 -0.230816,-0.523563 0.1813874,-0.7661175 0.6308594,-0.3046876 0.414219,0.3233201 -0.1899302,-0.07238 -0.019531,0.28125 -0.272556,0.451716 -0.1641177,-0.1659316 -0.3710937,-0.2753906 -0.04872,0.0891 -5.04e-5,0.6862563 0.3535156,0.7695313 C 3.9130131,9.8104269 4.129992,8.4795725 4.453125,8.9296875 4.289878,9.1092795 4.0091057,9.3052811 4.4492188,9.1113281 4.9723368,9.0330781 4.2543796,8.143127 4.8535156,8.53125 4.7804556,8.904593 5.070128,8.7321121 5.125,8.9863281 5.419819,8.5635791 5.3226374,9.0958847 5.0683594,9.1835938 4.9429574,9.0359217 4.8735963,9.0680722 4.6914062,9.3007812 4.0344932,9.1902242 4.1855901,9.7380785 4.5957031,10.039062 5.0086601,10.188557 4.421884,9.6303364 4.453125,9.4589844 c 0.08539,0.0258 0.4594252,-0.00416 0.6445312,-0.00586 -0.370967,0.243359 0.080893,0.5092498 -0.060547,0.7929686 C 4.8458302,10.219933 4.037812,10.644143 4.503906,10.191403 4.2397232,10.148056 4.305699,9.8192958 4.046875,9.8242188 4.212259,9.2818257 3.5516615,9.6043612 3.3984375,9.3945312 3.7346985,9.0411303 3.4222419,9.1520431 3.1386719,9.1425781 3.4167429,8.9127561 3.0712366,8.8271611 2.7441406,8.8613281 3.0215196,9.4324941 2.1279855,9.1406259 1.7734375,9.0761719 1.7265134,9.0227032 1.6098105,8.8511332 1.5,8.7167969 l 0,0.6171875 C 1.5741667,9.287788 1.6542889,9.2520157 1.7285156,9.25 1.8628726,9.2464 1.9591374,9.3311386 1.8808594,9.5566406 1.8746045,9.9159298 1.7198438,9.9039312 1.5,9.8027344 L 1.5,10 C 1.6813087,9.987132 1.8674743,9.976185 2.0214844,9.960937 2.1894174,9.515802 2.9210202,8.9877714 3.3007812,9.4980464 3.1769703,9.6139724 3.2276302,9.671016 3.4472656,9.773437 c 0.185885,0.101494 1.0351893,0.464837 0.6132813,0.554688 -0.287241,-0.3850075 -0.2092768,0.382505 -0.4492188,0.08008 -0.439223,-0.6311334 -0.2229216,1.028435 -0.7441406,0.673828 0.06299,-0.521941 -0.3673487,-0.0914 -0.042969,0.128907 0.3623389,0.245936 -0.2935536,0.227592 0.1328124,0.402343 -0.1699899,0.01379 -0.03842,0.332473 -0.25,0.347657 C 2.4130413,11.7025 2.2661913,11.806556 1.9257812,11.871094 1.2502003,11.870338 1.710208,11.302801 2.140625,11.46875 1.978289,11.629487 1.9201119,11.744027 2.185547,11.56836 2.187847,11.281286 2.09477,10.980249 2.5175782,11.013673 2.2732951,10.434229 1.874447,11.20789 1.671875,11.320312 1.6945885,11.070998 1.5966333,11.099625 1.5,11.216797 l 0,0.765625 c 0.5123621,0.139264 1.0661844,0.125351 1.5859375,0.05078 0.420602,-0.161983 -0.331916,-0.181335 0.109375,-0.410156 0.303672,0.154507 0.8646544,-0.286883 0.3183594,-0.341797 -0.09009,0.30369 -0.095803,-0.07527 -0.2675781,0.03711 -0.3213501,0.487895 -0.1006049,-0.167097 0.017578,-0.324218 -0.0086,0.20312 0.9692763,0.294686 0.5839843,0.455078 0.09023,0.30953 0.5430974,-0.0032 0.7558594,-0.07617 0.01719,0.765674 1.0352267,0.121164 0.9160156,0.603515 -0.325027,0.171819 -0.8133938,0.120486 -0.9042968,-0.1875 -0.515375,-0.363512 -0.046558,0.365696 -0.1269532,0.628907 -0.155014,0.312908 -0.3293876,0.729631 -0.6972656,1.017578 -0.385626,0.04053 0.1119145,-0.218942 0.1640625,-0.345703 0.223753,-0.117675 0.00353,-0.82093 0.035156,-0.445313 -0.175433,0.17068 -0.1216563,0.747308 -0.4101563,0.427735 0.09205,-0.760029 -1.3253156,0.447558 -0.5097656,0.105468 0.533934,-0.27005 0.3193711,0.35679 0.5488281,0.539063 0.247511,-0.260858 1.0112912,-0.348041 0.9863282,0.07422 -0.0866,0.10222 0.1813463,0.352757 0.099609,0.609375 0.2084189,-0.02153 0.2288531,0.02308 0.1445313,0.09961 l 0.3574218,0 c 0.3814743,-0.249568 -0.1415068,-0.41445 -0.15625,-0.751953 0.196148,0.04334 0.4879603,-0.655874 0.5664063,-0.208985 0.287389,0.236609 0.2925164,0.448117 -0.1035156,0.507813 0.2647441,0.158446 0.046137,0.308163 -0.03125,0.453125 l 0.2890625,0 c 0.038317,-0.153478 0.1396308,-0.29937 0.140625,-0.498047 0.02278,-0.294295 -0.1748102,-0.883079 -0.5957032,-0.744141 0.03354,0.399984 -0.4936708,0.318469 -0.5761718,-0.04687 0.162339,-0.649002 -0.6608776,0.353304 -0.1347656,0.002 -0.3265331,0.602711 -0.4147686,-0.465691 0.1171874,-0.416016 0.4829471,-0.179308 0.1277065,0.515278 0.4140626,0.5 -0.07751,-0.314019 0.1381931,-0.05617 0.2675781,-0.267578 -0.185745,0.02608 -0.4774382,-0.420372 -0.095703,-0.34375 0.630371,0.108137 -0.031955,-0.447918 0.3359374,-0.603516 0.114534,0.220164 0.1244463,0.348135 0.4257813,0.05469 0.192649,-0.577852 0.2611073,0.396775 -0.089844,0.285156 -0.355415,0.213381 0.019987,0.0422 0.060547,0.240234 0.30105,-0.168974 0.365792,0.461529 0.5,0.115235 -0.302246,-0.458796 0.2426523,-0.770559 0.1601563,-1.212891 -0.04162,0.14383 -0.108245,0.205899 -0.1875,0.232422 L 6.3710938,10.804688 c 0.109041,0.230539 0.220721,0.473869 0.328125,0.697265 0.01132,-0.333732 0.043688,-0.929269 -0.484375,-0.658203 C 5.7998328,11.097505 5.9795395,10.75069 6.0546875,10.53125 5.7870015,10.411721 5.6992249,10.00836 5.4667969,10.009766 5.0988529,10.089526 4.917329,9.6309766 5.34375,9.7597656 5.185675,9.6533656 5.2986273,9.1530199 5.7226562,9.2011719 5.6417763,9.0563889 5.723884,8.9402446 5.828125,8.9160156 c 0.104315,-0.02423 0.2295234,0.043565 0.2402344,0.265625 0.513079,0.397309 -0.3471585,0.082142 -0.5546875,0.1699219 -0.383264,0.335147 0.00194,0.1158416 0.1757812,0.3066406 0.273009,0.225479 -0.035064,0.3778829 0.072266,0.5195309 0.365565,0.292398 0.230375,-0.2767563 0.4375,-0.2285152 -0.01242,0.2385512 0.085678,0.4111962 0.1210937,0.5839842 0.393309,0.213063 0.044853,-0.227047 0.064453,-0.419922 -0.02103,-0.4934877 0.1867815,0.401365 0.2421875,0.0078 0.01379,0.459514 0.796033,0.651107 0.59375,0.0293 C 6.8971331,9.9101606 7.4151852,9.9379334 7.1914062,9.6308594 7.3597063,9.7682894 7.726278,9.6961453 8,9.8007812 L 8,9.6542969 C 7.800923,9.5790869 7.5760788,9.486655 7.5742188,9.296875 7.6834407,9.361835 7.849484,9.3875705 8,9.4453125 l 0,-0.03125 C 8.08581,9.5328615 8.125854,9.6908849 8.046875,9.8261719 8.028545,9.8494419 8.01259,9.8716381 8,9.8925781 L 8,10.021484 C 7.97807,9.9972444 7.9531181,9.973375 7.9238281,9.953125 7.6045501,9.59087 7.9816624,10.173514 7.7246094,10.15625 c -0.2739,-0.54324 -0.1856955,0.236451 -0.3828125,0.410156 -0.04966,0.355648 -0.4636348,0.07114 -0.5585938,0.423828 0.260838,0.391082 0.1533551,-0.391741 0.4082031,0 -0.02922,0.507163 0.9268749,1.195519 0.2480469,1.511719 -0.106365,0.02825 0.063278,0.406655 -0.2792969,0.484375 -0.2951569,-0.109487 -0.4383763,-0.421878 -0.037109,-0.367187 0.410016,-0.49713 -0.4372881,-0.168125 -0.4550781,0.06836 0.186147,0.527867 -0.3345755,0.297192 -0.6171876,0.353516 0.01303,0.172572 0.4516719,0.213013 0.6074219,0.423828 0.234453,-0.04337 0.8248618,0.02949 0.3085938,0.214844 -0.352634,-0.16076 -0.00266,0.335081 -0.2539063,0.238281 -0.414522,-8e-5 -0.2895702,-0.485417 -0.5039062,-0.566407 -0.544463,0.101742 -0.031878,0.209166 -0.017578,0.50586 -0.1490559,0.02752 -0.2625681,0.488501 0.060547,0.322266 C 6.5039102,13.63861 6.5818134,14.204365 6.5605469,14.5 l 0.2441406,0 c -0.1614639,-0.409678 0.3579558,-0.260846 0.375,-0.611328 -0.401088,0.531968 -0.098507,-0.30611 0.1757813,-0.376953 0.588236,-0.08038 -0.1979245,-0.400155 -0.4765626,-0.160157 -0.426546,-0.121451 0.4535002,-0.20242 0.5488282,-0.384765 0.353775,0.498918 0.1262544,-0.148877 0.3339844,-0.375 0.09416,0.0603 0.1801032,0.08557 0.2382812,0.07617 l 0,0.08398 c 0.0557,0.061 0.1140559,0.138838 0.2011719,0.138672 C 8.5111269,12.671282 8.196205,12.496702 8,12.490234 l 0,-0.09961 c -0.01865,-0.02964 -0.039586,-0.05926 -0.066406,-0.09375 0.02362,0.0093 0.045486,0.01301 0.066406,0.01367 l 0,-0.002 c 0.184553,-0.120111 0.338787,-0.389573 0.171875,-0.404297 -0.03143,-0.0028 -0.074816,0.0033 -0.1308594,0.02148 -0.01804,0.01561 -0.027256,0.0217 -0.041016,0.0332 L 8,11.849609 C 7.92125,11.71562 7.8025243,11.574993 7.8476562,11.839844 7.6020853,12.06648 7.683066,11.529999 7.984375,11.625 c 0.0047,5.52e-4 0.010355,-3.2e-4 0.015625,0 l 0,-0.01758 c 0.08742,-0.0085 0.1767275,0.01511 0.2421875,0.09375 0.08355,0.309958 0.40675,0.274557 0.578125,0.470703 0.118827,0.04393 0.2670766,-0.28914 0.2753906,0.160156 0.337018,-0.155259 0.1753493,0.243427 0.4726563,0.203125 -0.191099,-0.504356 0.3858229,0.039 0.1542968,0.195313 -0.1201019,0.513278 0.2807988,-0.01529 0.3925778,0.326172 0.07123,0.109117 0.182277,0.188643 0.304688,0.230468 0.395945,0.131986 0.440359,-0.164566 0.05859,-0.224609 -0.5852073,-0.07418 0.195498,-0.354667 -0.06641,-0.519531 -0.330673,0.307064 -0.4256137,0.07861 -0.5957028,-0.234375 C 9.4338933,11.824755 8.7359724,12.107843 8.3964844,11.587891 7.7085284,11.562981 8.5790901,11.145739 8.6582031,10.882812 8.3269561,10.98388 8.243969,10.778196 8.0625,10.630859 8.04124,10.651969 8.02093,10.6708 8,10.6875 L 8,10.64258 C 7.753024,10.683668 7.328022,10.076809 7.765625,10.277344 7.866308,10.365744 7.943733,10.396997 8,10.392578 L 8,10.5 C 8.0112,10.4936 8.022673,10.48568 8.033203,10.48047 8.360682,10.53042 8.1961011,10.358629 8.019531,10.373048 8.0129312,10.3736 8.00661,10.375853 8,10.376953 L 8,10.125 C 8.05819,10.14377 8.1452062,10.07629 8.1445312,9.8964844 8.1861112,10.087626 8.7155454,10.449889 8.8183594,10.113281 8.5367274,9.9476883 8.138508,9.6110275 8,9.1796875 l 0,0.011719 C 7.889801,9.1989063 7.8058713,9.1833146 7.8789062,9.0722656 7.8599062,8.8832316 7.910599,8.820218 8,8.8125 l 0,0.1777344 c 0.131529,-0.223999 -0.034217,0.1590395 0.1523438,0.1171875 0.113118,-0.346807 0.4560071,-0.1538628 0.1894531,0.097656 -0.06,0.475848 0.3723657,0.8047311 0.7460937,0.46875 -0.01708,-0.182243 -0.5391422,-0.3954212 -0.4101562,-0.6445312 0.478132,-0.203317 -0.3456925,-0.4869635 0.054687,-0.5390625 0.593119,-0.0093 0.3499087,0.6410664 0.1210937,0.8027344 0.241123,0.228196 0.3500652,-0.332492 0.5800782,-0.4375 -0.175313,0.3634419 0.8795617,0.1063241 0.390625,-0.076172 0.05589,0.235047 -0.1866293,0.31277 -0.2070313,-0.015625 C 9.8007395,8.3161169 9.297646,8.259132 9.140625,8 L 9.1015625,8 C 9.4491555,7.635347 9.7531466,6.9838736 9.1972656,6.9941406 8.8788886,7.2963536 8.4377716,6.7616956 8.9941406,6.7910156 9.6331986,6.7227356 8.8802689,6.4806957 8.6386719,6.5117188 8.8780469,6.4043757 8.8926991,6.3551064 8.8144531,6.3496094 8.6840471,6.3404094 8.2935276,6.4510269 8.2441406,6.6074219 8.1360176,7.0763749 8.6186531,7.0385154 8.7832031,7.2558594 8.7390131,7.8735974 8.310499,7.3504263 8,7.2226562 L 8,7.1152344 C 7.857045,7.0580444 7.7118906,6.9892555 7.6347656,6.8359375 7.8172086,6.8415375 7.927419,6.782483 8,6.6875 L 8,6.8828125 C 8.07204,6.8346225 8.06328,6.7170791 8,6.6425781 l 0,-0.15625 C 7.96129,6.5916701 7.6030159,6.027061 7.3730469,6.375 7.5752429,6.68066 7.5136341,6.6916196 7.2363281,6.4785156 6.7060881,5.9748096 8.2000873,6.2871122 7.5664062,5.8789062 7.6383063,5.6434603 7.816419,5.5120351 8,5.4082031 L 8,5.2617188 c -0.0075,0.006 -0.011581,0.00935 -0.019531,0.015625 C 7.6883348,5.9223057 7.2436334,5.0243666 6.9746094,5.4785156 7.1631534,5.4300756 7.6286862,5.6320804 7.1601562,5.6933594 6.6346853,5.5347244 7.2248836,5.9746605 6.8847656,6.1484375 7.0496066,6.5235475 6.7102718,6.3346424 6.5742188,6.6308594 6.3533168,6.2905434 6.8265344,5.6809768 6.8183594,5.2304688 6.6005704,4.7647277 7.1620535,4.9427071 7.1796875,4.5800781 6.7785995,5.1120451 7.0811797,4.2720149 7.3554688,4.2011719 7.9437038,4.1207919 7.1575452,3.8029708 6.8789062,4.0429688 6.4523613,3.9215178 7.3324064,3.838596 7.4277344,3.65625 7.7815084,4.155169 7.5539888,3.5093261 7.7617188,3.2832031 7.8558787,3.3435131 7.941821,3.368775 8,3.359375 L 8,3.443359 C 8.0557,3.5043694 8.1140559,3.5802441 8.2011719,3.5800781 8.5111259,3.3607351 8.196205,3.1881086 8,3.1816406 L 8,3.0820312 C 7.98135,3.0523912 7.9604138,3.0208181 7.9335938,2.9863281 7.9572138,2.9956281 7.97908,3.0012931 8,3.0019531 L 8,3 C 8.184553,2.879889 8.338787,2.6104271 8.171875,2.5957031 8.140445,2.5929031 8.0970596,2.5989975 8.0410156,2.6171875 8.0229756,2.6327975 8.01377,2.6388906 8,2.6503906 L 8,2.5390625 C 7.92125,2.4050735 7.8025252,2.266399 7.8476562,2.53125 7.6020863,2.757886 7.683066,2.2194521 7.984375,2.3144531 c 0.0047,5.53e-4 0.010355,-3.2e-4 0.015625,0 l 0,-0.015625 c 0.08742,-0.0085 0.1767275,0.013157 0.2421875,0.091797 0.08355,0.309958 0.40675,0.2765103 0.578125,0.4726562 0.118827,0.04393 0.2670766,-0.2910918 0.2753906,0.1582032 0.337019,-0.155259 0.1753503,0.2453811 0.4726563,0.2050781 -0.191098,-0.504356 0.3858229,0.039001 0.1542968,0.1953125 -0.1201019,0.513278 0.2807988,-0.015295 0.3925778,0.3261719 0.07123,0.109117 0.182276,0.1886447 0.304688,0.2304687 0.395945,0.131986 0.440359,-0.1645654 0.05859,-0.2246094 -0.5852033,-0.07418 0.195503,-0.3566214 -0.0664,-0.5214844 C 10.081435,3.5394849 9.9864942,3.3110279 9.8164062,2.9980469 9.4338922,2.5142089 8.7359724,2.7992489 8.3964844,2.2792969 7.7085284,2.2543869 8.5790901,1.8371438 8.6582031,1.5742188 8.4617097,1.6341783 8.3538497,1.5796458 8.2597656,1.5 l -0.5839844,0 C 7.7799434,1.5860696 7.8857759,1.6785517 8,1.7421875 L 8,1.7285156 C 8.07131,1.7352156 8.1363651,1.74345 8.1894531,1.75 8.2264231,1.95353 8.136315,2.0110301 8,2.0175781 L 8,2.1328125 C 7.734328,2.1840325 7.3661526,2.5293825 7.5253906,2.1015625 7.9982016,1.8443505 7.3788359,1.9100255 7.3574219,1.6484375 7.5716682,1.6924195 7.4851189,1.5992731 7.4179688,1.5 l -0.4472657,0 c -0.080192,0.02267 -0.1547963,0.060175 -0.1875,0.1816406 0.260838,0.391081 0.1533551,-0.39174 0.4082031,0 -0.02922,0.507163 0.9268749,1.1955178 0.2480469,1.5117188 -0.106365,0.02825 0.063278,0.406654 -0.2792969,0.484375 C 6.8649993,3.5682464 6.7217799,3.2539028 7.1230469,3.3085938 7.5330629,2.8114647 6.6857558,3.1424222 6.6679688,3.3789062 6.8541158,3.9067733 6.3333933,3.6741447 6.0507812,3.7304688 c 0.01303,0.1725729 0.4516719,0.2130131 0.6074219,0.4238281 0.234453,-0.04337 0.8248618,0.031446 0.3085938,0.2167969 -0.352634,-0.160759 -0.00266,0.3350802 -0.2539063,0.2382812 -0.414522,-8e-5 -0.2895702,-0.4854173 -0.5039062,-0.5664062 -0.544463,0.1017429 -0.031858,0.2091653 -0.017578,0.5058593 -0.1490559,0.02752 -0.2625681,0.4865485 0.060547,0.3203125 0.259441,-0.557148 0.3366578,0.065215 0.3085938,0.3515625 -0.289943,-0.185802 -0.8270413,-0.168553 -0.4570313,0.265625 -0.158508,0.609093 0.60676,-0.318484 0.46875,0.109375 0.03106,0.534765 -0.5040377,0.2748271 -0.6679687,0.017578 -0.351153,-0.377346 0.00601,-0.5601918 0.00781,-0.9199218 0.02278,-0.294294 -0.1748102,-0.8850318 -0.5957032,-0.7460938 0.03354,0.399984 -0.4936708,0.3204131 -0.5761718,-0.044922 0.162339,-0.649002 -0.6608776,0.3513649 -0.1347656,0 C 4.2789335,4.5050555 4.190698,3.4386059 4.722654,3.4882809 c 0.4829471,-0.179307 0.1277065,0.5152781 0.4140626,0.5 -0.07751,-0.314019 0.1381931,-0.056174 0.2675781,-0.2675781 -0.185745,0.02608 -0.4774382,-0.420371 -0.095703,-0.34375 0.630371,0.108138 -0.031955,-0.4479186 0.3359374,-0.6035156 0.114534,0.220163 0.1244463,0.3461804 0.4257813,0.052734 0.192649,-0.577852 0.2611073,0.3967752 -0.089844,0.2851562 -0.355415,0.213381 0.020007,0.044158 0.060547,0.2421875 0.30105,-0.168974 0.365792,0.4595763 0.5,0.1132813 -0.302246,-0.458796 0.2426523,-0.7686045 0.1601563,-1.2109375 -0.04162,0.14383 -0.108248,0.2058988 -0.1875,0.2324218 L 6.3710938,1.5 l -0.0625,0 C 6.2776228,1.510784 6.2508478,1.516674 6.2148438,1.535156 5.9721432,1.6835534 5.9445436,1.6167987 5.96875,1.5 l -0.1484375,0 c 0.027289,0.098509 0.032419,0.2019123 0.00586,0.3007812 C 5.4881189,2.1513593 5.8802101,2.007787 6.0175781,1.796875 6.2372431,1.413483 6.318944,2.0271092 6.328125,2.2070312 6.020192,2.4109543 6.1670249,1.8644819 6.0449219,1.9511719 5.6919649,2.2184709 6.3041377,2.3774453 6.5117188,2.4882812 6.3008277,2.5566712 5.9933773,2.3500426 5.7695312,2.5566406 5.7407913,2.4290356 5.4688641,2.0491862 5.4863281,1.7539062 5.6545894,1.7757915 5.6728242,1.6464279 5.640625,1.5 l -0.2910156,0 c -0.074058,0.2638942 -0.3438287,0.5215287 -0.1875,0.6992188 0.15344,-0.459685 0.4192645,-0.00242 0.1484375,0.1542968 C 5.0925129,2.3073356 4.1788114,1.7804715 4.7246094,1.7578125 5.0293749,2.2819935 5.0565413,1.6372268 4.7734375,1.5 l -0.171875,0 C 4.4977293,1.6192173 4.3858539,1.570434 4.2851562,1.5 l -0.21875,0 C 4.06515,1.5359443 4.0498334,1.5334475 4.0605469,1.6054688 4.4512618,2.137792 3.6526942,1.8066068 3.4609375,1.5 l -0.2460937,0 z m 0.4707031,0 c 0.0225,0.034774 0.057942,0.056952 0.1230469,0.039063 0.0018,-0.016169 0.00727,-0.024148 0.00977,-0.039063 l -0.1328125,0 z m 1.3261719,0 c 0.1702498,0.1670527 0.1964756,0.1176897 0.140625,0 l -0.140625,0 z m 1.3613281,0 C 6.4814964,1.729363 6.5924243,1.9712291 6.6992188,2.1933594 6.7071428,1.959747 6.721427,1.6030644 6.5507812,1.5 l -0.1777343,0 z m 2.359375,0 c 0.00517,0.0051 0.01502,0.00604 0.019531,0.011719 C 8.9479967,1.6707822 8.9673857,1.6080736 8.9296875,1.5 l -0.1972656,0 z m 0.9199219,0 c 0.119339,0.017649 0.2370316,0.045826 0.3339843,0.1171875 0.081929,0.116375 0.2690409,0.259387 0.3574219,0.0625 C 10.40314,1.6037605 10.41095,1.5528004 10.42383,1.5 l -0.15625,0 c -0.07465,0.072413 -0.112683,0.063707 -0.109375,0 l -0.5058592,0 z m 0.9804682,0 c 0.03623,0.068749 0.09295,0.1270926 0.19336,0.1445312 0.07165,0.009 0.463725,0.2789175 0.271484,0.023438 C 11.16615,1.6348562 11.215333,1.5705812 11.257812,1.5 l -0.326171,0 c -0.0081,0.00267 -0.01416,-5.596e-4 -0.02149,0 l -0.277344,0 z m 0.951172,0 c -0.216017,0.024281 -0.457488,0.4317602 -0.601562,0.5117188 0.04737,-0.520066 -0.43441,0.1333328 -0.324219,0.3886718 C 10.285406,2.1067436 9.9383776,1.7133564 9.5722656,1.5839844 9.0017756,1.7053494 9.9724755,1.9594927 10.099609,2.1367188 10.51421,2.4468368 9.9919315,2.285805 9.8671875,2.484375 9.4622155,2.812809 9.9259138,2.2950989 9.8398438,2.0917969 9.5461538,2.0554969 9.4571867,2.0763461 9.3242188,1.7988281 8.9774957,1.4291701 8.9635089,2.1204575 8.7636719,1.9609375 c 0.242325,-0.631545 -0.4415151,0.1827472 -0.00195,0.1757813 0.169361,0.07946 0.3585413,0.6200227 0.3964843,0.1054687 -0.324599,-0.156156 -0.024012,-0.4466338 0.085937,-0.042969 0.11495,0.460446 0.188218,-0.03778 0.453125,0 -0.514438,0.4432119 0.7000008,0.9457423 0.5761728,0.4589843 -0.5202898,0.17337 -0.08486,-0.1950534 0.183593,-0.099609 0.599342,0.2720709 1.299261,0.2578646 1.939453,0.1660156 0.420602,-0.161984 -0.333869,-0.1832884 0.107422,-0.4121094 0.303669,0.154506 0.864655,-0.2868829 0.31836,-0.3417969 -0.09009,0.303691 -0.0958,-0.073317 -0.267578,0.039063 -0.321349,0.487895 -0.09865,-0.1670987 0.01953,-0.3242187 -0.0086,0.203119 0.969276,0.2946861 0.583984,0.4550781 0.09023,0.309531 0.541143,-0.0032 0.753906,-0.076172 0.0096,0.4265488 0.320921,0.4181898 0.582032,0.4082031 -0.0019,-0.065986 -0.02316,-0.1253757 -0.03711,-0.1875 -0.322798,-0.1454147 -0.884455,-0.508221 -0.42383,-0.5273441 0.144351,0.2482755 0.221832,0.2293352 0.238281,0.1308594 C 14.157372,1.7445525 14.014358,1.6319735 13.837891,1.5683594 13.772069,1.5968603 13.70631,1.5657095 13.642578,1.5292969 13.594032,1.5221115 13.550606,1.5 13.5,1.5 l -0.123047,0 c -0.0013,0.035944 -0.01657,0.033448 -0.0059,0.1054688 C 13.761809,2.137792 12.961288,1.8066068 12.769531,1.5 l -0.24414,0 c -0.06151,0.2223982 -0.14421,0.4131794 -0.34961,0.2734375 0.06299,-0.521941 -0.367348,-0.093358 -0.04297,0.1269531 0.362338,0.245937 -0.293553,0.2295449 0.132813,0.4042969 -0.169991,0.01379 -0.03842,0.3324733 -0.25,0.3476563 -0.293989,-0.258438 -0.44084,-0.1543828 -0.78125,-0.089844 -0.67558,-7.56e-4 -0.215574,-0.5682928 0.214844,-0.4023438 -0.162335,0.1607371 -0.220512,0.2733233 0.04492,0.097656 0.0023,-0.287075 -0.09078,-0.5881115 0.332031,-0.5546875 C 11.769464,1.5686114 11.70363,1.5138605 11.634766,1.5 l -0.05078,0 z m 1.41211,0 c 0.0225,0.034774 0.05599,0.056952 0.121094,0.039063 0.0018,-0.016169 0.0073,-0.024148 0.0098,-0.039063 l -0.130859,0 z m -2.386719,0.2539062 c -0.08046,-5.239e-4 -0.224884,0.067271 -0.277344,0.21875 l 0.05078,0.00781 0.123047,-0.035156 c 0.199747,-0.12277 0.183973,-0.1909042 0.103516,-0.1914063 z M 1.8339844,1.765625 c -0.00242,0.00219 -0.00542,0.00365 -0.00781,0.00586 0.00347,-0.00111 0.00627,-0.00298 0.00781,-0.00586 z m 5.2304687,0.1523438 c -0.449661,0.242446 0.1751884,1.0900426 -0.5097656,1.0253906 -0.0499,0.09282 0.1087079,0.091574 0.1542969,0.089844 0.30617,-0.236177 0.6411315,0.036074 0.9296875,-0.1230469 0.0052,-0.415702 -0.124971,0.1755091 -0.28125,-0.125 C 7.2684519,2.5007173 7.0694801,2.1999728 7.0644531,1.9179688 Z M 3.7753906,2.3730469 c -0.04063,5.23e-4 -0.080245,0.00896 -0.1191406,0.025391 -0.594417,0.178098 0.034182,0.1589711 0.2207031,0.4394531 0.104017,0.105583 0.2059821,0.2179623 0.3300781,0.3007813 0.3909561,-0.09735 -0.038871,-0.770753 -0.4316406,-0.765625 z m 9.3105474,0 c -0.04063,5.23e-4 -0.0822,0.00896 -0.121094,0.025391 -0.594418,0.178098 0.03613,0.1589711 0.222656,0.4394531 0.104017,0.105583 0.204029,0.2179623 0.328125,0.3007813 0.390956,-0.09735 -0.03692,-0.770753 -0.429687,-0.765625 z m 0.613281,0.015625 c -0.08927,0.064091 0.157952,0.5232948 0.09766,0.7207031 -0.155014,0.312909 -0.329388,0.7296311 -0.697266,1.0175781 -0.385626,0.04053 0.111915,-0.2189411 0.164063,-0.3457031 0.223753,-0.117674 0.0035,-0.8228816 0.03516,-0.4472656 -0.175433,0.17068 -0.121655,0.7492615 -0.410156,0.4296875 0.09206,-0.760028 -1.325315,0.4456056 -0.509766,0.1035156 0.533935,-0.270051 0.321324,0.3587426 0.550782,0.5410156 0.24751,-0.260858 1.00934,-0.3480412 0.984374,0.074219 -0.0866,0.102221 0.1833,0.352757 0.101563,0.609375 0.289818,-0.02994 0.328208,0.032691 0.02734,0.1933593 -0.258511,0.3182581 -0.297583,-0.6396598 -0.419922,-0.3417968 -0.316506,0.57177 0.54759,0.6940641 0.84375,0.2832031 0.01489,-0.00817 0.02024,-0.015453 0.0332,-0.023437 l 0,-0.46875 c -0.06996,-0.0858 -0.135532,-0.1783313 -0.140625,-0.2949219 0.043,0.0095 0.09164,-0.024425 0.140625,-0.066406 l 0,-0.1953125 c -0.152096,0.067173 -0.394286,-0.032139 -0.449219,-0.2753906 0.162342,-0.649002 -0.66283,0.351365 -0.136719,0 -0.326534,0.602712 -0.412816,-0.4637375 0.119141,-0.4140626 0.482947,-0.1793079 0.125753,0.515279 0.412109,0.5 -0.03827,-0.1550388 -0.0046,-0.1722805 0.05469,-0.173829 l 0,-0.2285156 c -0.06394,-0.082952 -0.07556,-0.1600172 0,-0.1914063 l 0,-0.1640624 C 14.396356,3.1976412 14.309192,3.1460761 14.357422,3.078125 14.404311,3.0041293 14.452305,2.9491752 14.5,2.9121094 l 0,-0.1582032 C 14.242201,2.7757861 13.986812,2.6938584 13.923828,2.4804688 13.794985,2.3895905 13.728975,2.3673083 13.699219,2.3886719 Z M 3.5917969,2.7128906 c -0.0631,-0.0061 -0.1438286,0.043985 -0.2441407,0.1855469 -8.729e-4,0.316828 -0.1824678,0.339157 -0.3105468,0.0625 -0.367337,0.262596 0.5992233,0.2311519 0.6621094,0.4042969 0.117731,0.478071 0.1660061,-0.6260588 -0.1074219,-0.6523438 z m 9.3085941,0 c -0.0631,-0.0061 -0.14383,0.043985 -0.244141,0.1855469 -8.73e-4,0.316828 -0.180516,0.339157 -0.308594,0.0625 -0.367337,0.262596 0.597271,0.2311519 0.660156,0.4042969 0.11773,0.478071 0.166007,-0.6260588 -0.107421,-0.6523438 z M 4.0566406,2.7695312 C 4.1162906,2.7673312 4.200307,2.7998579 4.28125,2.9042969 3.909041,2.9487069 3.9254036,2.7744053 4.0566406,2.7695312 Z m 9.3105474,0 c 0.05965,-0.0022 0.141713,0.030327 0.222656,0.1347657 -0.37221,0.04441 -0.353894,-0.1298916 -0.222656,-0.1347657 z m -2.91211,0.076172 c -0.09547,-0.0079 -0.197119,0.034756 -0.291016,0.1699219 -0.1877144,0.446552 0.09886,0.1314281 0.304688,0.017578 0.637233,0.142295 -0.43465,0.5906147 0.169922,0.6816407 0.138284,0.05688 0.275919,0.1306606 0.425781,0.1503906 0.317713,-0.265925 -0.470211,-0.1740141 -0.298828,-0.2988282 0.288774,-0.420096 0.625156,0.1021152 0.875,-0.3261718 0.307148,0.304845 0.06581,-0.040025 0.171875,-0.1269532 0.272163,0.408174 0.385441,-0.1999892 0.03711,-0.1601562 -0.312716,0.447741 -0.875971,-0.4799575 -0.976562,0.2421875 -0.02432,-0.0697 -0.207939,-0.3322294 -0.417969,-0.3496094 z M 5.3300781,2.8574219 C 5.4094781,2.8633219 5.4604034,2.951135 5.4433594,3.125 5.6596564,3.371578 4.921307,3.255039 5.046875,3.078125 5.143015,2.926408 5.2506801,2.8514969 5.3300781,2.8574219 Z m 3.09375,0.033203 C 8.2970291,2.882125 8.6528627,3.2475177 8.5273438,3.4179688 8.3590478,3.9560878 9.0909234,3.1013416 8.5996094,2.9628906 8.5070294,2.9139906 8.4530901,2.892585 8.4238281,2.890625 Z M 1.7148438,2.9160156 C 1.6429402,2.9375782 1.5896006,3.0147763 1.5644531,3.1953125 1.5588664,3.1793013 1.5208053,3.1365996 1.5,3.1054688 l 0,0.4160156 C 1.7789047,3.2036659 2.0942008,3.6479325 2.3320312,3.2402344 2.6391792,3.5450794 2.3958901,3.2002093 2.5019531,3.1132812 2.7741161,3.5214552 2.8893486,2.913292 2.5410156,2.953125 2.3064794,3.2889315 1.9305544,2.8513278 1.7148438,2.9160156 Z M 4.703125,2.9433594 C 4.729455,2.9414594 4.7692358,2.988285 4.8242188,3.125 4.6836718,3.594616 4.60908,2.9502734 4.703125,2.9433594 Z m 9.308594,0 c 0.02633,-0.0019 0.06611,0.044926 0.121093,0.1816406 -0.140546,0.469616 -0.215138,-0.1747266 -0.121093,-0.1816406 z m -4.8945315,0.3125 C 8.9983745,3.2397294 8.8894421,3.4701245 8.8769531,3.6484375 8.8347131,4.0066585 8.7256767,3.71102 8.5117188,3.71875 8.2736478,3.64908 8.125827,3.7083269 8,3.8105469 L 8,4.0234375 C 7.884347,3.9174665 7.7961789,3.7246845 7.8261719,3.6328125 7.8452519,3.6441925 7.919365,3.6838887 8,3.7304688 L 8,3.5292969 c -0.07185,6.4e-4 -0.1444005,0.00361 -0.1953125,0.00391 C 7.7703775,3.9207831 7.507541,4.2510516 7.359375,4.5722656 7.528399,4.9018746 7.9537648,4.4971164 7.7148438,4.3808594 7.3477227,4.8656004 7.6951711,3.9429208 7.9238281,4.4023438 7.9052381,4.6461547 7.94042,4.675339 8,4.609375 l 0,0.042969 c 0.02711,10e-4 0.054368,0.00297 0.080078,0.00195 C 7.9256901,5.2788459 8.7340594,4.2867571 8.5058594,4.8300781 8.4841894,5.2755181 8.188722,5.0316061 8,4.9082031 L 8,4.8613281 C 7.96817,4.8916381 7.9320849,4.91768 7.8886719,4.9375 7.9285419,4.9396 7.965567,4.9423125 8,4.9453125 L 8,5.1894531 C 8.347936,5.1791031 8.8818061,4.9724524 8.5957031,5.3808594 7.8771521,5.5468644 9.2029907,5.8497535 8.8242188,5.2578125 8.4411637,4.9497635 8.8639375,4.4179419 9.1484375,4.8417969 9.2229875,5.4929489 8.9865099,4.5760255 8.7324219,4.8671875 9.5104349,5.2669695 8.3993083,6.2584894 8.2070312,5.4277344 7.9084283,5.6973634 8.8106311,6.1805914 8.1894531,6.0683594 8.1018031,6.1343394 8.041504,6.1620856 8,6.1660156 L 8,5.4746094 C 7.97623,5.6793654 7.8506041,5.7332051 7.7832031,5.9082031 8.2459731,5.7756981 7.5857879,6.1860623 7.9667969,6.2695312 7.9862269,6.3407113 7.99529,6.3895752 8,6.4257812 l 0,0.00586 C 8.03192,6.4096512 8.058819,6.3871992 8.074219,6.3613292 8.2883127,6.1389431 8.9592175,6.2446953 9.2421875,6.0195312 9.7563285,6.6419682 9.4533447,5.0569367 9.8242188,5.7148438 9.9929698,5.5280308 9.2579471,5.1901521 9.4863281,5.6894531 8.9826451,5.7919631 9.317936,4.8458436 9.734375,4.8535156 c -0.118612,0.317663 0.037876,0.4557168 0.333984,0.5117188 0.529987,0.185527 0.600736,0.9990721 1.261719,0.8457031 -0.08393,0.07388 -0.147335,0.8813777 0.08398,0.5429687 0.35863,-0.545504 0.362428,0.2730022 0.806641,0.1425782 0.03163,-0.190564 0.374782,-0.524852 0.501953,-0.25 -0.479264,0.201246 0.325296,0.535687 -0.144531,0.5 0.263885,0.168371 0.04379,0.5284273 -0.03516,0.8183594 0.153524,0.134427 0.322347,-0.402095 0.535156,-0.265625 0.254232,-0.3217971 -0.219955,-0.1830159 -0.138672,-0.3105469 0.197775,0.0075 0.615084,-0.4335345 0.634766,-0.085937 0.362441,0.257278 0.192918,-0.2959709 0.382812,-0.076172 0.419153,0.303688 0.292409,-0.3921599 -0.09766,-0.2480469 -0.557093,0.224396 -0.322798,-0.4539795 -0.705078,-0.4921875 -0.642089,0.138257 -0.148201,-0.5138431 0.164062,-0.2519531 0.301133,0.546427 0.762657,-0.3954348 0.144532,-0.2929688 -0.565068,0.08458 -1.050321,-0.2739408 -1.552735,-0.4199218 0.04154,-0.02494 0.758194,-0.1559167 0.302735,-0.1660156 -0.298798,-0.214386 0.150415,-0.1941355 0.21289,-0.3046876 -0.187916,-0.03677 -0.350147,-0.2650994 0.03711,-0.1640624 0.416983,-0.114044 0.374275,0.4369191 0.736328,0.3457031 0.03713,-0.256033 0.719657,-0.6607766 0.384765,-0.8847657 C 13.531372,4.5934077 13.261616,4.4550025 13.0078,4.5332035 12.693433,4.9379315 12.15989,4.2240663 12.650379,4.2480473 12.690919,3.8875393 12.445729,3.929834 12.310535,4.056641 11.931169,4.437065 12.168044,3.5403307 11.7578,3.4882816 c -0.0697,-0.0415 -0.122068,-0.058747 -0.160156,-0.060547 -0.165044,-0.0078 -0.05325,0.2869531 0.167969,0.2832031 -0.162819,0.43737 0.164496,0.2845799 0.324219,0.5761719 0.257672,-0.227171 0.493157,0.5140396 0.146484,0.3847656 -0.580686,-0.246296 -0.107969,0.2948021 -0.255859,0.5644531 -0.798272,-0.217134 -0.114011,0.514509 0.285156,0.578125 -0.454335,0.308289 -0.76836,-0.4809296 -1.214844,-0.5722656 -0.229626,-0.01252 -0.779016,0.2276607 -0.615234,-0.2851563 -0.277868,1.46e-4 -0.119236,0.7103631 -0.292969,0.171875 C 10.33638,4.7696923 9.9813024,4.9744695 9.8964844,4.7890625 9.7524354,4.4916485 9.6791355,3.396619 9.2578125,3.671875 9.4385575,3.816234 9.552164,4.1649276 9.171875,4.2597656 c -0.300215,-0.37926 -0.4859863,0.499766 -0.1601562,0 C 9.0270187,4.5727376 8.394749,4.549405 8,4.515625 L 8,4.2988281 C 8.334581,4.2859381 8.8702395,4.3720547 8.4140625,4.0898438 7.8796275,4.1768937 8.302815,3.7057437 8.625,3.9179688 8.5745,4.2806517 8.723409,3.8854469 8.96875,3.9667969 9.5517,4.3198919 8.8526628,3.6112544 9.2773438,3.4589844 9.2264638,3.3217084 9.1711915,3.2631934 9.1171875,3.2558594 Z m -6.828125,0.171875 C 2.1240175,3.4199344 2.2358112,3.7146865 2.4570312,3.7109375 2.2942123,4.1483065 2.621526,3.9955174 2.78125,4.2871094 3.038923,4.0599384 3.2744074,4.80115 2.9277344,4.671875 2.3470474,4.425579 2.819765,4.9666761 2.671875,5.2363281 1.873603,5.0191931 2.5578632,5.7508371 2.9570312,5.8144531 2.5026952,6.1227421 2.1886715,5.3335245 1.7421875,5.2421875 1.6810969,5.2388566 1.5869165,5.2522471 1.5,5.265625 l 0,0.2734375 c 0.076129,0.013565 0.1494051,0.017148 0.1953125,-0.021484 -0.331788,0.553971 0.4761594,-0.3236506 0.3027344,0.1621094 0.164957,0.09709 0.387012,0.475604 0.015625,0.296875 C 1.9559419,5.9016425 1.8219303,5.88041 1.8007812,6 1.7926725,6.0001612 1.6277316,5.8856732 1.5,5.8007812 l 0,0.2597657 c 0.1332364,0.1195233 0.2851626,0.2052247 0.5214844,0.1503906 -0.08393,0.07388 -0.1473386,0.8813777 0.083984,0.5429687 0.35863,-0.545504 0.3624276,0.2730022 0.8066406,0.1425782 0.03163,-0.190564 0.372829,-0.524852 0.5,-0.25 -0.479264,0.201245 0.3272489,0.535688 -0.1425782,0.5 0.263883,0.168371 0.043794,0.5284274 -0.035156,0.8183594 0.153524,0.134427 0.3223473,-0.402094 0.5351562,-0.265625 C 4.0237622,7.3774228 3.5495764,7.5162029 3.6308594,7.3886719 3.8286334,7.3961719 4.245942,6.9551374 4.265625,7.3027344 4.628066,7.5600124 4.4585435,7.0067635 4.6484375,7.2265625 5.0675905,7.5302505 4.9388921,6.8344026 4.5488281,6.9785156 3.9917351,7.2029116 4.2279841,6.5245361 3.8457031,6.4863281 3.2036141,6.6245861 3.6975036,5.972486 4.0097656,6.234375 4.3108996,6.780802 4.7724229,5.8389403 4.1542969,5.9414062 3.5892289,6.0259862 3.1020234,5.6674664 2.5996094,5.5214844 2.6411494,5.4965444 3.3597529,5.3655678 2.9042969,5.3554688 2.6054959,5.1410837 3.0547125,5.1613333 3.1171875,5.0507812 2.9292725,5.0140113 2.7670399,4.7856818 3.1542969,4.8867188 3.5712799,4.7726758 3.528572,5.3236389 3.890625,5.2324219 3.927755,4.9763889 4.6102826,4.5716463 4.2753906,4.3476562 4.2227906,4.5934073 3.9530338,4.4550021 3.6992188,4.5332031 3.3848508,4.9379311 2.8513069,4.2240649 3.3417969,4.2480469 3.3823369,3.8875379 3.1371471,3.9298336 3.0019531,4.0566406 2.6225871,4.4370656 2.8594637,3.5403302 2.4492188,3.4882812 c -0.0697,-0.0415 -0.1220673,-0.058747 -0.1601563,-0.060547 z m 3.4882813,0.037109 c -0.03361,0.0026 -0.1155547,0.078777 -0.1660157,0.2109374 -0.07068,0.2898161 0.4821558,0.054274 0.1210938,-0.072266 0.068,-0.09822 0.071062,-0.1407218 0.044922,-0.1386718 z M 1.5,3.6308594 l 0,0.1445312 c 0.083905,0.035191 0.1658631,0.077995 0.2558594,0.089844 C 1.9840508,3.6742387 1.6471176,3.6655589 1.5,3.6308594 Z m 0.6484375,0.140625 c -0.03685,-0.0081 -0.080035,0.021623 -0.1230469,0.1289062 0.276326,0.270757 0.2335919,-0.1046422 0.1230469,-0.1289062 z m 9.3085935,0 c -0.03685,-0.0081 -0.08004,0.021623 -0.123047,0.1289062 0.276325,0.270757 0.233592,-0.1046422 0.123047,-0.1289062 z M 1.7773438,4.0078125 C 1.6911141,4.194509 1.6068773,4.2431669 1.5,4.2324219 l 0,0.3457031 C 1.8166853,4.4923288 2.0928714,4.2709458 1.7773438,4.0078125 Z m 9.3105472,0 c -0.151549,0.32812 -0.289614,0.2562036 -0.574219,0.1191406 -0.49193,-0.25706 -0.81875,0.2528374 -0.390625,0.5839844 0.122188,0.08477 0.220675,-0.017336 0.298828,-0.1035156 0.365242,0.08796 1.118179,-0.2225294 0.666016,-0.5996094 z m -8.8886722,0.095703 c -0.02866,-0.0087 -0.056383,0.02109 -0.070313,0.1269532 0.250034,0.274225 0.1562925,-0.1008052 0.070313,-0.1269532 z m 9.3085932,0 c -0.02866,-0.0087 -0.05637,0.02109 -0.07031,0.1269532 0.250033,0.274225 0.156282,-0.1008052 0.07031,-0.1269532 z M 9.578125,4.1953125 C 9.558605,4.3039345 9.7304529,4.6406643 9.5917969,4.7539062 9.5252969,4.8212063 9.2835442,5.05918 9.2851562,4.8125 9.5347392,4.689316 9.457014,4.4515435 9.578125,4.1953125 Z m 0.839844,0.095703 c 0.01868,0.0012 0.0371,0.00467 0.05664,0.00977 0.272501,0.1998151 0.141831,0.170219 -0.08398,0.046875 -0.4191039,0.306514 -0.252684,-0.075131 0.02734,-0.056641 z m -8.089844,0.085937 c -0.226746,0.02888 -0.3718194,0.5043536 -0.4902344,0.6816407 0.306476,0.05856 0.7930083,-0.1474367 0.6601563,-0.6191407 -0.0617,-0.05002 -0.1175959,-0.06917 -0.1699219,-0.0625 z m 9.308594,0 c -0.226746,0.02888 -0.371821,0.5043536 -0.490235,0.6816407 0.306475,0.05856 0.794962,-0.1474367 0.66211,-0.6191407 -0.0617,-0.05002 -0.119549,-0.06917 -0.171875,-0.0625 z M 5.4414062,4.40625 c -0.06682,0.0033 -0.1702496,0.060373 -0.2285156,0.1855469 -0.03888,0.102197 0.089472,0.1341778 0.1269532,0.044922 C 5.5518807,4.4878088 5.5273233,4.40204 5.4414062,4.40625 Z M 1.9335938,4.6894531 C 1.8284137,4.717181 1.653848,4.7078685 1.5,4.7109375 L 1.5,4.8125 C 1.519473,4.824129 1.536886,4.853775 1.546875,4.9296875 1.523937,4.9548455 1.517425,4.9518025 1.5,4.9667965 l 0,0.1054687 C 1.6964128,4.9583798 2.0028032,4.7288748 1.9335938,4.6894531 Z m 9.3085942,0 c -0.257717,0.06794 -0.917737,-0.097457 -0.722657,0.2890625 0.02906,0.07106 0.07196,0.1816609 0.169922,0.1699219 0.146641,-0.05092 0.635745,-0.4117014 0.552735,-0.4589844 z M 3.78125,4.7050781 c 0.04612,7.86e-4 0.083822,0.046068 0.076172,0.1660157 -0.02708,0.06101 -0.04666,0.1285901 -0.099609,0.1738281 C 3.5392415,4.9186069 3.67979,4.7033611 3.78125,4.7050781 Z m 9.310547,0 c 0.04612,7.86e-4 0.08382,0.046068 0.07617,0.1660157 -0.02708,0.06101 -0.04861,0.1285901 -0.101563,0.1738281 -0.218571,-0.126315 -0.07607,-0.3415608 0.02539,-0.3398438 z m -2.306641,0.095703 c 0.02866,-0.0087 0.05637,0.023043 0.07031,0.1289063 -0.250031,0.274226 -0.156283,-0.1027582 -0.07031,-0.1289063 z m -3.1269529,0.041016 c -0.164803,-0.0011 -0.6556955,0.2071837 -0.2734375,0.4179687 0.133536,0.0911 0.3984998,0.1174959 0.3867188,-0.1113281 -0.05658,-0.02065 -0.525254,-0.198414 -0.203125,-0.15625 0.171721,-0.105583 0.1647607,-0.1498986 0.089844,-0.1503906 z M 6.1191406,5.1445312 c 0.01961,-0.0026 0.075809,0.053237 0.1894532,0.2089844 C 6.4411268,5.8939816 6.0490956,5.1540163 6.1191406,5.1445312 Z M 12.625,5.359375 c -0.06347,-0.016679 -0.113294,0.036379 -0.05664,0.2246094 0.431275,0.238195 1.043958,0.2208339 1.511719,0.3261718 0.06671,-0.09848 0.116712,0.2765538 0.144531,0.3710938 -0.41243,-0.437383 -0.17855,0.1880247 -0.347656,0.4648438 0.357574,0.2472479 0.08316,-0.3698003 0.339844,-0.2851563 -0.02626,0.268596 0.08829,0.4316987 0.283203,0.4941406 l 0,-0.6230469 C 14.431885,6.2700466 14.36,6.2011375 14.363281,6.046875 14.384842,6.0183138 14.450469,5.9198149 14.5,5.8398438 L 14.5,5.375 C 14.45155,5.405814 14.41887,5.464657 14.43164,5.59375 13.859577,5.85902 13.335184,5.3062445 12.771484,5.5546875 12.766449,5.4621545 12.688473,5.3760542 12.625,5.359375 Z m -2.121094,0.099609 c 0.100838,0.01235 0.383388,0.1567287 0.5,0.058594 -0.331787,0.553971 0.47616,-0.3236506 0.302735,0.1621094 0.164956,0.09709 0.387012,0.475604 0.01563,0.296875 C 11.264536,5.9016425 11.130524,5.88041 11.109375,6 11.095495,6.000276 10.783175,5.8012723 10.59375,5.6601562 10.448505,5.4925163 10.443403,5.4515714 10.503906,5.4589844 Z M 7.2539062,5.787109 c 0.07476,0.003 0.168783,0.046239 0.21875,0.1503906 0.103336,0.252497 -0.024625,0.1269769 -0.1328124,0.060547 C 7.0584017,5.8876649 7.1293053,5.7821004 7.2539062,5.7871094 Z m 3.0214848,0.035156 c -0.06563,0.0086 -0.123645,0.055782 -0.144532,0.1699219 -0.02039,0.136049 -0.01741,0.2743674 0.164063,0.1777344 0.4445,-0.03661 0.177366,-0.3734183 -0.01953,-0.3476563 z M 3.2695312,5.9257812 c 0.06724,0.0015 0.1461357,0.050559 0.1972657,0.1796876 l -0.027344,0.070312 -0.066406,0.029297 C 3.0257759,6.1420581 3.1216093,5.9223762 3.2695312,5.9257812 Z m 9.3105468,0 c 0.06724,0.0015 0.144183,0.050559 0.195313,0.1796876 l -0.02734,0.070312 -0.06641,0.029297 C 12.334368,6.1420681 12.432157,5.9223762 12.580078,5.9257812 Z m -2.7382811,0.03125 c -0.138173,0.02862 -0.3972442,0.8017167 -0.5800781,0.2285157 -0.4071271,0.145468 0.2081221,0.344348 0.4550781,0.359375 0.4612591,0.03065 -0.030181,0.67774 -0.082031,0.3125 C 9.3454076,6.4371709 9.5429724,7.4132444 9.8808594,6.9746094 10.352987,7.0940704 9.2391799,7.399248 9.5605469,7.8125 9.6365469,7.88453 9.7527224,7.884964 9.8496094,7.902344 10.448163,7.960844 9.6168036,7.6963727 9.8066404,7.6484377 10.180511,7.6996277 11.055784,7.6979097 10.644531,7.121094 10.563801,6.7646867 10.804809,6.6378766 10.980469,6.9941406 11.326735,6.6085966 10.628252,6.618057 10.564453,6.40625 10.483753,6.185323 9.4084226,6.4201632 9.9160156,6.0820312 c -0.01676,-0.09817 -0.042329,-0.1316049 -0.074219,-0.125 z M 4.296875,6.0117188 c 0.01728,0.0026 0.029417,0.039698 0.029297,0.1328124 C 4.0475099,6.6348512 4.22196,6.0004518 4.296875,6.0117188 Z m 9.308594,0 c 0.01728,0.0026 0.02942,0.039698 0.0293,0.1328124 -0.278662,0.49032 -0.104212,-0.1440795 -0.0293,-0.1328124 z M 2.734375,6.0488281 c 0.109783,-8e-6 0.2195279,0.04811 0.3105469,0.1757813 0.432844,0.03084 0.161884,0.3350942 -0.078125,0.1132812 -0.331846,-0.329816 -0.1697255,0.091667 -0.4140625,0.1035156 -0.114877,0.0017 -0.2286788,0.020878 -0.3398438,0.048828 C 1.8048676,6.7156444 2.0675974,6.328789 2.2871094,6.28125 2.3705794,6.179346 2.551405,6.0488401 2.734375,6.0488281 Z m 9.308594,0 c 0.109784,-8e-6 0.219528,0.04811 0.310547,0.1757813 0.432844,0.03084 0.163837,0.3350952 -0.07617,0.1132812 -0.331845,-0.329816 -0.171679,0.091667 -0.416016,0.1035156 -0.114877,0.0017 -0.228679,0.020878 -0.339844,0.048828 -0.408023,0.22541 -0.145293,-0.1614454 0.07422,-0.2089844 0.08347,-0.101904 0.264296,-0.2324099 0.447266,-0.2324219 z m -1.275391,0.1679688 c -0.03039,8.4e-5 -0.03018,0.044398 0.0332,0.1699219 l 0.06055,0.064453 c 0.350644,0.166945 -0.0027,-0.234628 -0.09375,-0.234375 z M 1.5,6.2519531 l 0,0.1445313 0.052734,0.054687 C 1.8693825,6.6019311 1.6198766,6.3139846 1.5,6.2519531 Z m 8.607422,0.2226563 c 0.215535,-0.01378 0.488643,0.4456051 0.408203,0.6894531 0.05712,0.147385 -0.175061,0.6674245 -0.232422,0.2578125 0.384744,-0.541521 -0.261931,0.03425 -0.4843749,0.0625 0.168841,-0.177942 0.6093289,-0.6511673 0.2207029,-0.9726562 0.0272,-0.02324 0.0571,-0.035139 0.08789,-0.037109 z M 1.5,6.5800781 l 0,0.2265625 c 0.056546,0.023899 0.1162864,0.074758 0.171875,0.1875 C 1.8910864,6.7500641 1.6922431,6.6636154 1.5,6.5800781 Z m 6.8535156,0.050781 c 0.07205,-0.007 0.1835474,0.065337 0.1933594,0.2226562 0.03375,0.224255 -0.08233,0.166902 -0.140625,0.03125 C 8.250381,6.7253066 8.2814626,6.6378444 8.3535156,6.6308594 Z m -4.0605468,0.033203 c -0.02866,-0.0087 -0.056383,0.02109 -0.070313,0.1269531 0.2500341,0.274224 0.1562925,-0.1008051 0.070313,-0.1269531 z m 9.3105472,0 c -0.02866,-0.0087 -0.05637,0.02109 -0.07031,0.1269531 0.250033,0.274224 0.156283,-0.1008051 0.07031,-0.1269531 z m -9.8281254,0.00781 c 0.102959,-0.0041 0.1685128,0.059117 0.089844,0.2734375 l -0.03711,0.076175 C 3.399173,7.3982044 3.9780627,6.6793994 3.6679688,6.8183594 3.1388548,7.0191324 3.5488866,6.680894 3.7753906,6.671875 Z m 9.3105474,0 c 0.102959,-0.0041 0.166559,0.059117 0.08789,0.2734375 l -0.03711,0.076172 c -0.428951,0.37672 0.149936,-0.342085 -0.160157,-0.203125 C 12.447447,7.0191324 12.859433,6.680894 13.085938,6.671875 Z M 2.3984375,6.8945312 C 2.2733465,6.9030312 2.1422781,7.0226345 2.2519531,7.2578125 2.4787401,7.6793505 1.8104406,7.7624563 1.8691406,7.4101562 2.3928236,7.4649662 1.8803849,6.6966146 1.6855469,7.2441406 1.8652409,7.5410916 1.3587745,7.835992 1.5390625,8 L 1.5,8 1.5,8.03125 C 1.539503,8.042326 1.572105,8.072966 1.583984,8.1640625 1.5529442,8.1380189 1.5247663,8.1260526 1.5,8.1230469 l 0,0.2929687 C 1.6302905,8.2481166 1.4389763,8.8294987 1.7929688,8.6796875 2.0040637,8.1179015 1.8690429,9.277016 2.1230469,8.875 1.8128389,8.494098 2.7123386,8.4473874 2.2285156,8.7089844 2.1835956,9.1515924 2.6510955,8.8088151 2.7890625,8.6269531 3.0352795,8.9246861 3.084073,8.4517008 2.796875,8.4335938 2.540701,8.3991038 1.5000767,8.4559755 1.8710938,8.0546875 1.8885137,8.0334675 1.8988794,8.01772 1.9121094,8 L 2.0390625,8 C 1.8285195,7.608569 2.219674,7.793929 2.140625,8 L 2.054688,8 C 2.049388,8.01767 2.044013,8.041721 2.039063,8.056641 L 1.986329,8.117188 C 2.2629591,8.2533815 2.3010019,8.160793 2.2949219,8 l 0.2324219,0 c -0.0015,0.04332 -0.00431,0.087619 -0.00391,0.1289062 C 2.5582675,8.4369972 2.6663536,8.202577 2.6972656,8 l 0.042969,0 C 2.7411064,7.93076 2.7453494,7.85875 2.7558594,7.78125 2.4390354,7.888972 2.3677959,7.440222 2.5136719,7.203125 2.6441589,6.99021 2.5235105,6.8860823 2.3984375,6.8945312 Z m 9.3085935,0 c -0.12509,0.0085 -0.254207,0.1281033 -0.144531,0.3632813 0.226787,0.421538 -0.443463,0.5046438 -0.384766,0.1523437 0.523683,0.05481 0.0132,-0.7135416 -0.18164,-0.1660156 C 11.175788,7.5410906 10.667368,7.835993 10.847656,8 L 10.746094,8 C 10.705664,7.95333 10.650458,7.9047926 10.574219,7.8535156 10.496829,7.8066256 10.436752,7.7859963 10.390625,7.7851562 10.286736,7.7832562 10.250286,7.880909 10.220703,8 l 0.130859,0 c -0.01885,0.03985 -0.04991,0.08117 -0.09961,0.125 -0.05455,0.589981 0.572706,-0.4817725 0.640625,0.039063 -0.226918,-0.190391 -0.288051,0.3163574 -0.144531,0.3339844 0.287793,-0.502201 -0.05263,0.3535226 0.353515,0.1816406 0.211096,-0.561786 0.07608,0.5973285 0.330079,0.1953125 -0.310208,-0.380902 0.58929,-0.4276126 0.105468,-0.1660156 -0.04492,0.442608 0.424533,0.099831 0.5625,-0.082031 0.246216,0.297733 0.29504,-0.1752523 0.0078,-0.1933593 C 11.851247,8.3991038 10.80867,8.4559755 11.179688,8.0546875 11.197117,8.0334675 11.207473,8.01772 11.220703,8 l 0.126953,0 c -0.210542,-0.391431 0.180611,-0.206071 0.101563,0 l -0.08594,0 c -0.0053,0.01767 -0.01069,0.041721 -0.01563,0.056641 l -0.05273,0.060547 C 11.57155,8.2533815 11.609596,8.160793 11.603516,8 l 0.232422,0 c -0.0015,0.04332 -0.0024,0.087619 -0.002,0.1289062 C 11.868814,8.4369972 11.976901,8.202577 12.007812,8 l 0.04102,0 c 8.73e-4,-0.06924 0.0051,-0.14125 0.01563,-0.21875 C 11.74763,7.888972 11.676389,7.440222 11.822266,7.203125 11.952753,6.99021 11.832104,6.8860822 11.707031,6.8945312 Z M 2.9921875,7.0722656 c -0.169765,0.01241 -0.3622339,0.1563143 -0.3886719,0.3007813 0.515491,-0.236889 0.021081,0.055475 -0.068359,0.2714843 C 2.6196963,7.6280113 3.5856665,7.583636 3.2578125,7.34375 3.2416425,7.132224 3.1242255,7.0626156 2.9921875,7.0722656 Z m 9.3085935,0 c -0.169766,0.01241 -0.362234,0.1563143 -0.388672,0.3007813 0.515491,-0.236889 0.02303,0.055475 -0.06641,0.2714843 0.08454,-0.01652 1.048558,-0.060895 0.720703,-0.3007812 -0.01617,-0.211526 -0.133587,-0.2811344 -0.265625,-0.2714844 z m 2.171875,0.023437 C 14.423196,7.1060426 14.317754,7.535231 14.136719,7.554687 13.889844,7.338114 13.621428,8.0064793 13.662109,7.511718 13.129623,7.2286588 13.504615,7.706931 13.636719,8 l 0.04101,0 c 0.0094,0.01871 0.01961,0.03775 0.02734,0.0625 0.04004,-0.02302 0.06822,-0.04318 0.0918,-0.0625 l 0.222656,0 c -0.0079,0.0094 -0.01349,0.019917 -0.02344,0.029297 -0.3624,0.13097 -0.0412,0.9379936 -0.462891,0.6503906 -0.466737,-0.232979 0.30849,-0.472471 -0.09375,-0.5625 C 13.288863,8.2101675 13.163439,8.123614 13.082031,8 l 0.125,0 c -0.02365,-0.02366 -0.05858,-0.049249 -0.107422,-0.074219 -0.08311,-0.0241 -0.130335,-0.031404 -0.15625,-0.027344 -0.04254,0.0067 -0.02298,0.046756 0.01172,0.1015625 l -0.646484,0 c 0.0208,0.242466 0.05509,0.4829548 0.251953,0.6523438 -0.230816,-0.523563 0.181388,-0.7661175 0.630859,-0.3046876 0.41422,0.3233201 -0.189929,-0.07238 -0.01953,0.28125 -0.272556,0.451716 -0.162164,-0.1659316 -0.369141,-0.2753906 -0.04872,0.0891 -0.0019,0.6862563 0.351563,0.7695313 0.06731,0.68738 0.284288,-0.6434744 0.607422,-0.1933594 -0.163247,0.179592 -0.442066,0.3755936 -0.002,0.1816406 0.523115,-0.07825 -0.196793,-0.9682011 0.402343,-0.5800781 -0.07306,0.373343 0.216613,0.2008621 0.271485,0.4550781 0.03225,-0.046242 0.04325,-0.045103 0.06641,-0.070312 l 0,-0.5546875 C 14.387987,8.2641373 14.227994,8.2345344 14.021484,8.2480469 14.036724,8.1431079 14.090093,8.066277 14.15625,8 l 0.08203,0 C 14.176301,7.888862 13.82935,7.7178939 14.037109,7.6542969 14.272265,7.878932 14.438623,7.8211166 14.5,7.6503906 l 0,-0.3671875 c -0.005,-0.110117 -0.01147,-0.19082 -0.02734,-0.1875 z m -5.1992185,0.068359 c 0.04102,-0.0053 0.084074,0.013743 0.1269531,0.070312 l -0.013672,0.048828 -0.039063,0.052734 C 8.9829383,7.6512955 9.0956765,7.1869335 9.2734375,7.1640625 Z m -3.546875,0.019531 c -0.184937,-0.0054 -0.43141,0.08833 -0.375,0.3144531 -0.132142,0.450624 0.5831461,0.3445834 0.5488281,-0.00977 -0.105679,0.2417271 -0.3222329,0.2693577 -0.1699218,-0.021484 0.30398,-0.172752 0.1810677,-0.2777802 -0.00391,-0.2832031 z m 1.7988281,0.2929687 c 0.03379,0.0077 0.076999,0.044869 0.1308594,0.1289063 C 7.42087,7.9616017 7.3789816,7.4431065 7.5253906,7.4765625 Z m -0.8125,0.265625 c 0.02314,0.0014 0.047669,0.00499 0.074219,0.011719 C 6.6014244,7.8676873 6.5975853,7.979904 6.6757812,8 l 0.054688,0 C 6.7826888,7.98983 6.8515081,7.9549565 6.9238281,7.8828125 6.9241191,7.9227825 6.9279937,7.961526 6.9335938,8 L 6.8144531,8 c 0.06896,0.19523 0.173772,0.3625754 0.375,0.4121094 C 7.0847291,8.8149974 6.6458511,8.307293 6.6582031,8 l -0.21875,0 C 6.4718231,7.847549 6.5509126,7.7325125 6.7128906,7.7421875 Z M 1.6445312,7.8769531 C 1.6733513,7.8704531 1.7404964,7.946232 1.8183594,8 L 1.640625,8 C 1.624475,7.91454 1.6272813,7.8808621 1.6445312,7.8769531 Z m 9.3105468,0 C 10.983898,7.8704531 11.051042,7.946232 11.128906,8 l -0.179687,0 c -0.01615,-0.08546 -0.01139,-0.1191379 0.0059,-0.1230469 z M 9.5410156,7.9628906 C 9.5087756,7.9595906 9.464873,7.97043 9.421875,8 L 9.503906,8 C 9.550006,8.08314 9.6068192,8.1697625 9.6621092,8.2265625 9.9500894,8.3974625 9.8034854,8.139814 9.6933594,8 L 9.5878906,8 C 9.5852906,7.97869 9.5684856,7.965711 9.5410156,7.962891 Z M 5.2421875,8 c -0.0029,0.0037 -0.00501,0.00594 -0.00781,0.00977 C 5.2408775,8.00567 5.2456155,8.00313 5.2519555,8 l -0.00977,0 z m 2.3027344,0 c -0.0015,0.0078 -0.00281,0.013444 -0.00391,0.021484 C 7.5487156,8.0131844 7.5589225,8.00677 7.5703125,8 l -0.025391,0 z m 0.5039062,0 c -0.0012,0.05251 0.023256,0.07844 0.140625,0 L 8.0488281,8 Z M 9.8125,8 C 9.85722,8.115374 9.9099728,8.2305245 9.9492188,8.3515625 9.4721098,8.7071275 10.064264,8.4884908 10.287109,8.5117188 10.250189,8.4056727 10.076862,8.19233 9.9960938,8 L 9.8125,8 Z M 5.6992188,8.3164062 c 0.01996,-0.0044 0.059908,0.053019 0.1289062,0.2207032 C 5.810785,9.1380944 5.6279408,8.3322333 5.6992188,8.3164062 Z m 4.8867192,0.2207032 c -0.04796,0.00171 -0.08142,0.052545 -0.08984,0.1855468 0.431863,0.4222091 -0.151448,0.8495854 -0.242188,1.3496098 0.0839,-0.02268 0.2073,-0.03054 0.320313,-0.04297 -0.0279,0.01323 -0.04947,0.06512 -0.05078,0.193359 0.369209,0.362313 0.175471,-0.198376 0.0625,-0.195312 0.248253,-0.02655 0.521615,-0.044182 0.746093,-0.066406 0.167933,-0.445135 0.897583,-0.9731656 1.277344,-0.4628906 -0.123811,0.115926 -0.07315,0.1729696 0.146484,0.2753906 0.185885,0.101494 1.03519,0.464836 0.613282,0.554687 -0.287241,-0.3850065 -0.209277,0.382505 -0.449219,0.08008 -0.439223,-0.6311324 -0.222922,1.028436 -0.744141,0.673828 0.06299,-0.521941 -0.367348,-0.0914 -0.04297,0.128907 0.362338,0.245936 -0.293552,0.227592 0.132813,0.402343 -0.16999,0.01379 -0.03842,0.332473 -0.25,0.347657 -0.293989,-0.258438 -0.44084,-0.154382 -0.78125,-0.08984 -0.675581,-7.56e-4 -0.215574,-0.568293 0.214844,-0.402344 -0.162336,0.160737 -0.220513,0.275277 0.04492,0.09961 0.0023,-0.287074 -0.09078,-0.588111 0.332031,-0.554687 -0.244282,-0.579442 -0.641178,0.194217 -0.84375,0.30664 0.04738,-0.520065 -0.43441,0.133333 -0.324219,0.388672 -0.372794,-0.293647 -0.7198254,-0.687034 -1.0859374,-0.816406 -0.57049,0.121365 0.4002109,0.375508 0.5273434,0.552734 0.414601,0.310118 -0.1076775,0.15104 -0.2324215,0.34961 -0.404972,0.328434 0.058726,-0.189276 -0.027344,-0.392578 -0.29369,-0.0363 -0.3826571,-0.0174 -0.515625,-0.294922 -0.3467231,-0.369658 -0.3607099,0.321629 -0.5605469,0.162109 0.242325,-0.631545 -0.4414742,0.182748 -0.00195,0.175781 0.169361,0.07946 0.3585413,0.621976 0.3964843,0.107422 -0.324602,-0.156156 -0.024033,-0.448585 0.085937,-0.04492 0.11495,0.460448 0.188218,-0.03778 0.453125,0 -0.514438,0.443214 0.7000011,0.945743 0.5761721,0.458985 -0.5202881,0.17337 -0.08486,-0.195053 0.183593,-0.09961 0.599342,0.272071 1.299262,0.257864 1.939453,0.166015 0.420602,-0.161984 -0.333868,-0.181335 0.107422,-0.410156 0.303666,0.154506 0.864654,-0.286883 0.31836,-0.341797 -0.09009,0.303691 -0.0958,-0.07527 -0.267578,0.03711 -0.321349,0.487894 -0.100605,-0.167098 0.01758,-0.324218 -0.0086,0.203119 0.971228,0.294685 0.585937,0.455078 0.09023,0.30953 0.541144,-0.0032 0.753906,-0.07617 0.0097,0.430106 0.325622,0.420179 0.587891,0.410156 l 0,-0.169922 c -0.309155,-0.127179 -0.949896,-0.526819 -0.466797,-0.546875 0.349333,0.600835 0.335767,-0.335856 -0.09375,-0.28125 -0.269521,0.397067 -0.661188,-0.495139 -0.568359,0.128907 0.447549,0.609757 -0.669592,0.08724 -0.642578,-0.234375 0.364436,-0.391233 0.09867,0.247653 0.388672,0.167968 0.07673,-0.689703 0.79652,-0.220781 1.18164,-0.05469 0.395081,0.409885 0.101075,-0.242644 -0.144531,-0.310547 0.09048,-0.140031 0.205919,-0.20366 0.326172,-0.212891 0.0065,-4.97e-4 0.01303,0.0041 0.01953,0.0039 l 0,-0.3261719 c -0.09684,-0.075249 -0.109055,-0.1671759 0,-0.1894531 l 0,-0.6738281 c -0.03595,0.040596 -0.07343,0.082496 -0.123047,0.099609 C 14.251551,9.0359217 14.18219,9.0680722 14,9.3007812 c -0.656914,-0.110557 -0.503863,0.4372973 -0.09375,0.7382808 0.412957,0.149495 -0.175772,-0.4087256 -0.144531,-0.5800776 0.08539,0.0258 0.459426,-0.00416 0.644531,-0.00586 -0.370967,0.243359 0.08089,0.5092498 -0.06055,0.7929686 -0.191278,-0.02616 -0.999298,0.39805 -0.533203,-0.05469 -0.264183,-0.04335 -0.198206,-0.3721098 -0.457031,-0.3671868 0.165385,-0.5423931 -0.495213,-0.2198575 -0.648438,-0.4296876 0.336262,-0.3534009 0.0238,-0.2424881 -0.259765,-0.2519531 0.278071,-0.229822 -0.06744,-0.315417 -0.394532,-0.28125 0.277379,0.571166 -0.616154,0.2792978 -0.970703,0.2148438 -0.08299,-0.094562 -0.35221,-0.5441883 -0.49609,-0.5390599 z M 4.0253906,8.7070312 c -0.135051,0.6025481 -0.31892,0.08463 0,0 z m 9.3105474,0 c -0.135052,0.6025481 -0.318921,0.08463 0,0 z m -3.164063,0.1035157 c -0.120904,0.16373 0.430514,0.6453912 -0.1914062,0.4570312 5.819e-4,0.03214 0.060778,0.2790855 -0.1894532,0.3828125 0.5457084,0.293018 -0.4584813,0.283749 -0.5058594,0.6875004 0.309667,0.352182 0.075454,-0.0279 0.2734376,-0.126953 0.345487,0.374629 -0.4620529,0.540033 -0.3261719,0.05469 0.05636,-0.636462 -0.7694399,0.526505 -0.2167969,0.0918 0.03675,0.599472 0.6302751,0.317788 0.9707031,0.568359 0.081929,0.116376 0.2690409,0.259388 0.3574219,0.0625 0.330473,-0.422494 -0.170072,-0.422245 -0.273438,-0.714843 -0.06461,-0.5900135 0.682436,-0.9547851 0.101563,-1.4628911 z m -3.7480469,0.097656 c 0.298976,0.011 0.780075,0.2869382 0.765625,0.5800781 C 7.0211571,9.69528 6.4292327,9.389732 6.3867188,9.1699217 6.8056398,9.3036767 6.4001618,8.9537621 6.1933594,9.0820307 6.1894594,8.9536838 6.2879344,8.9032006 6.4238281,8.9082026 Z m 2.0878907,0.2128907 c 0.02473,0.0046 0.052452,0.036635 0.076172,0.1132812 C 8.3257936,9.598389 8.4045367,9.1011368 8.5117188,9.1210938 Z M 6.7441406,9.171875 C 6.7161806,9.170275 6.7340146,9.217348 6.8457031,9.3554688 7.3152241,9.6192638 6.8280386,9.176619 6.7441406,9.171875 Z M 9.5351562,9.21875 C 9.3535183,9.21085 9.1349466,9.3250479 9.1972656,9.6386719 9.1878656,9.7609279 9.2375914,9.9467418 9.3964844,9.9335938 10.130314,10.026364 9.0247707,9.0147959 9.6523438,9.5292969 9.8627227,9.3560589 9.7167953,9.226645 9.5351562,9.21875 Z M 11.037109,9.25 c 0.134356,-0.0036 0.230622,0.081139 0.152344,0.3066406 -0.0074,0.425066 -0.214535,0.337774 -0.501953,0.1875 C 10.485621,9.5049236 10.813179,9.256081 11.037109,9.25 Z M 1.6738281,9.3945312 C 1.6448868,9.3969957 1.574966,9.4512144 1.5,9.5214844 l 0,0.1113281 c 0.00367,-0.00412 0.017399,-0.014573 0.017578,-0.015625 0.164343,-0.163149 0.191875,-0.2256662 0.15625,-0.2226563 z m 9.3105469,0 c -0.0458,0.0039 -0.198289,0.1156358 -0.302734,0.2617188 -0.0045,0.114773 0.142995,-0.030022 0.144531,-0.039063 0.164343,-0.163149 0.193827,-0.2256662 0.158203,-0.2226563 z m -3.640625,0.00195 c 0.02106,0.0028 0.052262,0.015632 0.099609,0.044922 L 7.4941406,9.5 C 7.6143736,9.902448 7.196251,9.3772224 7.34375,9.3964844 Z m -4.4726562,0.09375 c -0.105304,0.0022 -0.2943253,0.06487 -0.3945313,0.1542968 -0.392998,0.3274461 0.031032,0.1794276 0.2617187,0.2734376 0.441702,0.1941734 0.219434,-0.077761 0.03125,-0.21875 0.22912,-0.1523331 0.2068656,-0.2111754 0.1015626,-0.2089844 z m 9.3085942,0 c -0.105305,0.0022 -0.29237,0.06487 -0.392579,0.1542968 -0.393001,0.3274461 0.02908,0.1794276 0.259766,0.2734376 0.441702,0.1941734 0.219434,-0.077761 0.03125,-0.21875 0.22912,-0.1523331 0.206865,-0.2111754 0.101563,-0.2089844 z m -5.8417974,0.013672 c 0.05794,0.0039 0.1097262,0.02326 0.1425782,0.0625 0.1045239,0.4757028 -0.1660551,-0.034885 -0.21875,0.1054688 5.819e-4,0.04954 -0.021439,0.1053802 -0.068359,0.1289062 C 5.7122918,9.7475582 6.086827,9.4870453 6.337891,9.5039032 Z m 0.5742188,0.1933594 c 0.0593,0.0087 0.1156326,0.059214 0.1503906,0.1679688 -0.410429,-0.07922 0.00886,0.1175395 0.011719,0.3828126 -0.0017,0.262781 -0.204237,0.108086 -0.25,-0.03125 C 6.533083,10.011105 6.73421,9.6710886 6.91211,9.6972626 Z M 3.3125,9.8183594 c -0.0224,-4.65e-4 -0.045099,0.00367 -0.068359,0.00977 -0.271389,0.3287926 -0.5567642,0.3514326 -0.9570312,0.4199216 -0.229318,0.02954 -0.7409673,0.899149 -0.7695313,0.429687 -0.00652,-0.0099 -0.011267,-0.01276 -0.017578,-0.02148 l 0,0.291016 c 0.00669,0.0016 0.010543,0.0066 0.017578,0.0078 0.07165,0.009 0.4617733,0.276966 0.2695313,0.02148 0.246473,-0.119156 0.258505,-0.626228 0.515625,-0.470703 -0.01597,0.380329 0.3487292,0.151128 0.5039062,-0.07031 0.277853,0.455045 0.347547,-0.5076663 0.71875,-0.353516 C 3.8751266,10.510719 3.648558,9.8254084 3.3125,9.8183594 Z m 9.310547,0 c -0.0224,-4.65e-4 -0.04706,0.00367 -0.07031,0.00977 -0.271389,0.3287926 -0.556767,0.3514326 -0.957031,0.4199216 -0.229318,0.02954 -0.740967,0.899149 -0.769531,0.429687 -0.265405,-0.404773 -0.364143,0.214099 0,0.277344 0.07165,0.009 0.463725,0.276966 0.271484,0.02148 0.246473,-0.119156 0.256552,-0.626228 0.513672,-0.470703 -0.01597,0.380329 0.348729,0.151128 0.503906,-0.07031 0.277853,0.455045 0.347548,-0.5076663 0.71875,-0.353516 0.349737,0.428688 0.125121,-0.2566222 -0.210937,-0.2636712 z M 9.828125,10.113281 c 0.05288,-0.01287 0.1091171,0.107213 0.1113281,0.314453 0.1774989,0.511373 -0.2552141,0.289837 -0.2050781,-0.02148 0.01231,-0.192397 0.05263,-0.28296 0.09375,-0.292969 z m -8,0.08203 c -0.08401,-0.0072 -0.2551549,0.06064 -0.3105469,0.173829 -0.06401,0.196502 0.3847253,0.197767 0.2539063,-0.0078 0.134249,-0.109748 0.1219756,-0.160443 0.056641,-0.166016 z m 9.308594,0 c -0.08401,-0.0072 -0.255155,0.06064 -0.310547,0.173829 -0.06401,0.196502 0.384725,0.197767 0.253906,-0.0078 0.134249,-0.109748 0.121976,-0.160443 0.05664,-0.166016 z m -5.964844,0.07422 c 0.360762,-0.02769 0.7619129,0.439233 0.6542969,0.839844 -0.338053,0.350577 0.054038,0.207007 0.1914062,-0.0039 0.219665,-0.383391 0.3013659,0.230235 0.3105469,0.410156 -0.307933,0.203924 -0.1611001,-0.34255 -0.2832031,-0.255859 -0.352957,0.267299 0.2592158,0.428225 0.4667969,0.539062 -0.2108911,0.06839 -0.5183415,-0.138238 -0.7421876,0.06836 -0.02874,-0.127606 -0.3006671,-0.509408 -0.2832031,-0.804688 0.429855,0.05591 0.023261,-0.818716 -0.2871093,-0.673828 0.5388099,0.383884 -0.2775814,0.845811 -0.037109,1.11914 0.15344,-0.459683 0.4192645,-4.64e-4 0.1484375,0.15625 -0.218034,-0.04618 -1.1317355,-0.574997 -0.5859375,-0.597656 0.349332,0.600834 0.3338128,-0.335856 -0.095703,-0.28125 -0.269521,0.397067 -0.6611893,-0.49514 -0.5683593,0.128906 0.447549,0.609758 -0.667639,0.08724 -0.640625,-0.234374 0.364437,-0.391233 0.098675,0.247653 0.3886719,0.167968 0.07673,-0.689703 0.7965206,-0.220781 1.1816406,-0.05469 0.39508,0.409885 0.1010747,-0.242644 -0.1445313,-0.310547 0.09048,-0.140031 0.2059189,-0.20366 0.3261719,-0.212891 z m -2.6855469,0.02344 c 0.05067,-0.007 0.1112077,0.02381 0.1660157,0.125 -0.3878021,0.249535 -0.3180337,-0.103945 -0.1660157,-0.125 z m 9.3105469,0 c 0.05067,-0.007 0.109255,0.02381 0.164063,0.125 -0.387803,0.249535 -0.316081,-0.103945 -0.164063,-0.125 z m -3.2949219,0.06445 c -0.02929,-0.0026 -0.055528,0.0046 -0.080078,0.02148 -0.268116,0.376991 0.1926291,0.268244 0.3300781,0.441406 0.482664,0.39162 0.033114,-0.438185 -0.25,-0.46289 z m -1.0625,0.273437 C 7.6479941,10.774168 7.802313,10.940647 8,11.050781 l 0,-0.01172 c 0.07131,0.0067 0.1363651,0.01298 0.1894531,0.01953 C 8.2264231,11.262125 8.136315,11.321576 8,11.328125 l 0,0.115234 c -0.265672,0.05122 -0.6338474,0.39657 -0.4746094,-0.03125 0.472811,-0.257212 -0.1465547,-0.19349 -0.1679687,-0.455078 0.374208,0.07682 -0.1828428,-0.26551 0.082031,-0.326172 z m 2.8183589,0.0039 c 0.02473,0.0046 0.0505,0.03663 0.07422,0.113281 -0.262097,0.364013 -0.1814,-0.133239 -0.07422,-0.113281 z m 0.351563,0.427734 c -0.08046,-5.23e-4 -0.224884,0.06728 -0.277344,0.21875 l 0.05078,0.0098 0.123047,-0.03516 c 0.199747,-0.12277 0.183973,-0.192857 0.103516,-0.193359 z M 14.5,11.183594 c -0.06342,0.120981 -0.106292,0.234483 -0.02734,0.324218 0.0083,-0.02478 0.01853,-0.02138 0.02734,-0.04101 l 0,-0.283203 z m -7.4355469,0.04297 c -0.449661,0.242446 0.1751884,1.090042 -0.5097656,1.025391 -0.0499,0.09282 0.1087079,0.09157 0.1542969,0.08984 0.30617,-0.236177 0.6411315,0.03803 0.9296875,-0.121094 0.0052,-0.415702 -0.124971,0.17551 -0.28125,-0.125 -0.08897,-0.284438 -0.2879418,-0.587137 -0.2929688,-0.869141 z m -3.2890625,0.455079 c -0.04063,5.24e-4 -0.080245,0.009 -0.1191406,0.02539 -0.594417,0.178098 0.034182,0.160925 0.2207031,0.441407 0.104017,0.105582 0.2059821,0.216008 0.3300781,0.298828 0.3909561,-0.09735 -0.038871,-0.770753 -0.4316406,-0.765625 z m 9.3105474,0 c -0.04063,5.24e-4 -0.0822,0.009 -0.121094,0.02539 -0.594418,0.178098 0.03613,0.160925 0.222656,0.441407 0.104017,0.105582 0.204029,0.216008 0.328125,0.298828 0.390956,-0.09735 -0.03692,-0.770753 -0.429687,-0.765625 z m 0.613281,0.01563 c -0.08927,0.06409 0.157951,0.523294 0.09766,0.720703 -0.155013,0.312909 -0.329389,0.729631 -0.697266,1.017578 -0.385626,0.04053 0.111915,-0.218941 0.164063,-0.345703 0.223753,-0.117674 0.0035,-0.820929 0.03516,-0.445313 -0.175433,0.17068 -0.121655,0.747309 -0.410156,0.427735 0.09206,-0.760028 -1.325315,0.445605 -0.509766,0.103515 0.533935,-0.270051 0.321325,0.358742 0.550782,0.541016 0.24751,-0.260859 1.009342,-0.348042 0.984374,0.07422 -0.07923,0.09353 0.128323,0.311976 0.103516,0.544922 0.172657,-0.10707 0.3193,-0.250912 0.400391,-0.439454 -0.02451,-0.04761 -0.05615,-0.09244 -0.05859,-0.148437 0.03044,0.0067 0.06569,-0.02489 0.09961,-0.04687 C 14.47307,13.6341 14.5,13.571381 14.5,13.5 l 0,-0.01172 c -0.152114,0.06701 -0.394309,-0.03418 -0.449219,-0.277343 0.162342,-0.649004 -0.66283,0.353304 -0.136719,0.002 -0.326534,0.602711 -0.412816,-0.465691 0.119141,-0.416016 0.482947,-0.179308 0.125753,0.515279 0.412109,0.5 C 14.407045,13.14184 14.44071,13.126549 14.5,13.125 l 0,-0.230469 c -0.06366,-0.08284 -0.0754,-0.16008 0,-0.191406 l 0,-0.164063 c -0.103644,-0.03283 -0.190808,-0.08439 -0.142578,-0.152343 0.04688,-0.07398 0.09489,-0.126997 0.142578,-0.164063 l 0,-0.160156 c -0.257799,0.02188 -0.513188,-0.06005 -0.576172,-0.273438 -0.128843,-0.09088 -0.194853,-0.11316 -0.224609,-0.0918 z M 3.5917969,12.021484 c -0.0631,-0.0061 -0.1438286,0.04594 -0.2441407,0.1875 -8.729e-4,0.316828 -0.1824678,0.337193 -0.3105468,0.06055 -0.367337,0.262596 0.5992233,0.233104 0.6621094,0.40625 0.117731,0.47807 0.1660061,-0.628012 -0.1074219,-0.654297 z m 9.3085941,0 c -0.0631,-0.0061 -0.14383,0.04594 -0.244141,0.1875 -8.73e-4,0.316828 -0.180516,0.337193 -0.308594,0.06055 -0.367337,0.262596 0.597271,0.233104 0.660156,0.40625 0.11773,0.47807 0.166007,-0.628012 -0.107421,-0.654297 z m -8.8437504,0.05859 c 0.05965,-0.0022 0.1436664,0.03033 0.2246094,0.134766 -0.372209,0.04441 -0.3558464,-0.129892 -0.2246094,-0.134766 z m 9.3105474,0 c 0.05965,-0.0022 0.141713,0.03033 0.222656,0.134766 -0.37221,0.04441 -0.353894,-0.129892 -0.222656,-0.134766 z m -2.91211,0.07422 c -0.09547,-0.0079 -0.197119,0.03476 -0.291016,0.169922 -0.1877144,0.446552 0.09886,0.131428 0.304688,0.01758 0.637233,0.142295 -0.43465,0.590615 0.169922,0.681641 0.138284,0.05688 0.275919,0.13066 0.425781,0.15039 0.317713,-0.265925 -0.470211,-0.174013 -0.298828,-0.298828 0.288774,-0.420097 0.625159,0.102115 0.875,-0.326172 0.307151,0.304845 0.06581,-0.03807 0.171875,-0.125 0.272163,0.408174 0.385439,-0.201942 0.03711,-0.162109 -0.312719,0.44774 -0.875971,-0.479958 -0.976562,0.242187 -0.02432,-0.0697 -0.207939,-0.332228 -0.417969,-0.349609 z m -5.1249999,0.01172 c 0.0794,0.0059 0.1303253,0.09371 0.1132813,0.267578 0.216297,0.246577 -0.5220524,0.130039 -0.3964844,-0.04687 0.09614,-0.151717 0.2038051,-0.226628 0.2832031,-0.220703 z m 3.09375,0.0332 c -0.126799,-0.0085 0.2290346,0.358846 0.1035157,0.529297 -0.168296,0.538118 0.5635796,-0.31858 0.072266,-0.457032 -0.09258,-0.0489 -0.1465193,-0.0703 -0.1757813,-0.07226 z m -6.7089843,0.02539 c -0.071904,0.02156 -0.1252432,0.09876 -0.1503907,0.279297 -0.00554,-0.01588 -0.043915,-0.05708 -0.064453,-0.08789 l 0,0.414062 c 0.2789047,-0.317819 0.5942008,0.126448 0.8320312,-0.28125 0.307148,0.304845 0.063859,-0.03807 0.1699219,-0.125 0.272163,0.408174 0.3873955,-0.201942 0.039063,-0.162109 C 2.30648,12.59752 1.930555,12.159917 1.7148444,12.224604 Z m 2.9882812,0.02734 c 0.02633,-0.0019 0.066111,0.04688 0.1210938,0.183594 C 4.6836718,12.905163 4.60908,12.258867 4.703125,12.251953 Z m 9.308594,0 c 0.02633,-0.0019 0.06611,0.04688 0.121093,0.183594 -0.140546,0.469616 -0.215138,-0.17668 -0.121093,-0.183594 z m -4.8945315,0.314453 c -0.118813,-0.01613 -0.2277454,0.212312 -0.2402344,0.390625 -0.04224,0.35822 -0.1512764,0.06258 -0.3652343,0.07031 C 8.2736478,12.957674 8.125827,13.016921 8,13.119141 l 0,0.21289 C 7.884347,13.226081 7.7961789,13.035232 7.8261719,12.943359 7.8452519,12.954739 7.919365,12.992482 8,13.039062 l 0,-0.201171 c -0.07185,6.4e-4 -0.1444005,0.0036 -0.1953125,0.0039 -0.03431,0.38758 -0.2971465,0.717848 -0.4453125,1.039062 0.169024,0.329608 0.5943898,-0.07515 0.3554688,-0.191406 -0.3671211,0.484741 -0.019683,-0.437937 0.2089843,0.02149 C 7.9052381,13.95475 7.94043,13.983934 8,13.917969 l 0,0.04297 c 0.02711,9.99e-4 0.054368,0.003 0.080078,0.002 C 7.9256901,14.58744 8.7340594,13.59535 8.5058594,14.138672 8.4841894,14.584111 8.188722,14.3402 8,14.216797 l 0,-0.04687 c -0.03183,0.03031 -0.067915,0.05831 -0.1113281,0.07813 0.03987,0.0021 0.076895,0.0029 0.1113281,0.0059 L 8,14.5 c 0.2668929,-0.0079 0.6360396,-0.126809 0.6679688,0 l 0.097656,0 C 8.50552,14.189448 8.8830677,13.755037 9.1484375,14.150391 9.2229875,14.801544 8.9865099,13.88462 8.7324219,14.175781 8.903323,14.263599 8.9718941,14.380645 8.9902344,14.5 l 0.34375,0 C 9.4254894,14.32237 9.5651256,14.158991 9.734375,14.162109 9.67826,14.312396 9.687389,14.419735 9.740235,14.5 l 0.427735,0 C 10.15807,14.47228 10.15611,14.47944 10.14258,14.4375 10.336382,14.078286 9.981304,14.283063 9.896486,14.097656 9.752437,13.800241 9.6791371,12.705213 9.2578141,12.980469 c 0.180745,0.144359 0.2943515,0.493052 -0.085937,0.58789 -0.300215,-0.379261 -0.4859862,0.499753 -0.1601562,0 C 9.0270187,13.881332 8.394749,13.857999 8,13.824219 l 0,-0.216797 c 0.334581,-0.01289 0.8702395,0.07323 0.4140625,-0.208984 -0.534435,0.08705 -0.1112475,-0.384101 0.2109375,-0.171876 -0.0505,0.362684 0.098409,-0.03252 0.34375,0.04883 0.582953,0.353095 -0.1160872,-0.35359 0.3085938,-0.50586 -0.05088,-0.137276 -0.1061523,-0.195791 -0.1601563,-0.203125 z m -6.828125,0.169922 c -0.165045,-0.0078 -0.053251,0.286953 0.1679687,0.283203 -0.1628189,0.43737 0.1644948,0.28458 0.3242188,0.576172 0.257673,-0.227171 0.4931574,0.51404 0.1464844,0.384766 C 2.3746518,13.745881 2.7640294,14.220887 2.6757812,14.5 l 0.1699219,0 c 0.070714,-0.05086 0.2339548,-0.07422 0.2714844,-0.140625 -0.187915,-0.03677 -0.3501476,-0.265099 0.037109,-0.164063 0.3057052,-0.08361 0.365218,0.188275 0.5175781,0.304688 l 0.2421875,0 c 0.090332,-0.256657 0.6802456,-0.630445 0.3613281,-0.84375 -0.0526,0.245751 -0.3223569,0.107346 -0.5761718,0.185547 -0.314368,0.404728 -0.8479119,-0.309137 -0.3574219,-0.285156 0.04054,-0.360508 -0.2046498,-0.318214 -0.3398438,-0.191407 -0.379366,0.380424 -0.1424894,-0.516309 -0.5527343,-0.568359 -0.0697,-0.0415 -0.1220673,-0.05875 -0.1601563,-0.06055 z m 9.3085935,0 c -0.165044,-0.0078 -0.05325,0.286953 0.167969,0.283203 -0.162819,0.43737 0.164495,0.28458 0.324219,0.576172 0.257672,-0.227171 0.493157,0.51404 0.146484,0.384766 C 11.683226,13.745873 12.07266,14.220891 11.984375,14.5 l 0.171875,0 c 0.07105,-0.05058 0.232091,-0.07437 0.269531,-0.140625 -0.187915,-0.03677 -0.350146,-0.265099 0.03711,-0.164063 0.305705,-0.08361 0.365217,0.188275 0.517578,0.304688 l 0.242187,0 c 0.09033,-0.256657 0.680246,-0.630445 0.361328,-0.84375 -0.0526,0.245751 -0.322356,0.107346 -0.576172,0.185547 -0.314367,0.404728 -0.847911,-0.309138 -0.357421,-0.285156 0.04054,-0.360509 -0.20465,-0.318214 -0.339844,-0.191407 -0.379366,0.380424 -0.142488,-0.51631 -0.552735,-0.568359 -0.0697,-0.0415 -0.122067,-0.05875 -0.160156,-0.06055 z m -5.8203122,0.03711 c -0.03361,0.0026 -0.1155547,0.08073 -0.1660157,0.21289 -0.07068,0.289816 0.4821558,0.05232 0.1210938,-0.07422 0.068,-0.09822 0.071062,-0.14072 0.044922,-0.138671 z M 1.5,12.941406 l 0,0.142578 c 0.083905,0.03519 0.1658631,0.078 0.2558594,0.08984 C 1.9840295,12.98285 1.6471402,12.976097 1.5,12.941406 Z m 0.6484375,0.138672 c -0.03685,-0.0081 -0.080035,0.02358 -0.1230469,0.13086 0.276326,0.270756 0.2335919,-0.106596 0.1230469,-0.13086 z m 9.3085935,0 c -0.03685,-0.0081 -0.08004,0.02358 -0.123047,0.13086 0.276325,0.270756 0.233592,-0.106596 0.123047,-0.13086 z m -9.6796872,0.236328 c -0.083736,0.181298 -0.1651792,0.235091 -0.2675782,0.228516 0.00515,0.110814 0.024408,0.218043 0.0625,0.316406 0.2809917,-0.0998 0.4950648,-0.303088 0.2050782,-0.544922 z m 9.3105472,0 c -0.151549,0.328121 -0.289614,0.256204 -0.574219,0.119141 -0.49193,-0.25706 -0.81875,0.252837 -0.390625,0.583984 0.122185,0.08477 0.220675,-0.01733 0.298828,-0.103515 0.365242,0.08796 1.118179,-0.222529 0.666016,-0.59961 z m -8.8886722,0.0957 c -0.02866,-0.0087 -0.056383,0.02109 -0.070313,0.126953 0.250034,0.274225 0.1562925,-0.100805 0.070313,-0.126953 z m 9.3085932,0 c -0.02866,-0.0087 -0.05637,0.02109 -0.07031,0.126953 0.250033,0.274225 0.156282,-0.100805 0.07031,-0.126953 z m -1.929687,0.0918 c -0.01952,0.108622 0.1523219,0.447304 0.013672,0.560547 -0.0665,0.0673 -0.3082526,0.30332 -0.3066407,0.05664 0.249583,-0.123184 0.1718578,-0.360957 0.2929688,-0.617188 z m 0.839844,0.0957 c 0.01868,0.0012 0.0371,0.0047 0.05664,0.0098 0.272501,0.199815 0.141831,0.170219 -0.08398,0.04687 -0.4191039,0.306514 -0.252684,-0.07513 0.02734,-0.05664 z M 2.328125,13.6875 c -0.199123,0.02536 -0.3290229,0.374273 -0.4394531,0.583984 0.04278,0.03387 0.08668,0.06521 0.1347656,0.0918 C 2.305352,14.330665 2.60625,14.132233 2.4980469,13.748047 2.4363469,13.698027 2.380451,13.68083 2.328125,13.6875 Z m 9.308594,0 c -0.226746,0.02888 -0.371821,0.502399 -0.490235,0.679688 0.306475,0.05856 0.794962,-0.147437 0.66211,-0.619141 -0.0617,-0.05002 -0.119549,-0.06722 -0.171875,-0.06055 z m -6.1953128,0.02734 c -0.06682,0.0033 -0.1702496,0.06232 -0.2285156,0.1875 -0.03888,0.102198 0.089472,0.132225 0.1269532,0.04297 0.2120369,-0.14891 0.1874795,-0.234678 0.1015624,-0.230468 z M 1.9335938,14 c -0.066321,0.01748 -0.175199,0.01191 -0.2734376,0.01172 0.037946,0.06218 0.0709,0.127492 0.1210938,0.179687 C 1.88811,14.102717 1.9700131,14.020744 1.9335938,14 Z m 9.3085942,0 c -0.257717,0.06794 -0.917737,-0.09941 -0.722657,0.287109 0.02906,0.07106 0.07196,0.181661 0.169922,0.169922 C 10.836094,14.406111 11.325198,14.047283 11.242188,14 Z M 3.78125,14.01367 c 0.04612,7.86e-4 0.083822,0.04606 0.076172,0.166016 -0.02708,0.06101 -0.04666,0.128589 -0.099609,0.173828 C 3.5392415,14.2272 3.67978,14.011955 3.78125,14.013672 Z m 9.310547,0 c 0.04612,7.86e-4 0.08382,0.04606 0.07617,0.166016 -0.02708,0.06101 -0.04861,0.128589 -0.101563,0.173828 -0.218571,-0.126316 -0.07608,-0.341561 0.02539,-0.339844 z m -2.306641,0.09766 c 0.02866,-0.0087 0.05637,0.02109 0.07031,0.126953 -0.250031,0.274225 -0.156283,-0.100805 -0.07031,-0.126953 z M 7.6582031,14.15235 C 7.5113326,14.151363 7.1107246,14.315077 7.2949219,14.5 l 0.4648437,0 c 0.00271,-0.0158 0.012715,-0.02363 0.011719,-0.04297 -0.05658,-0.02065 -0.525254,-0.198415 -0.203125,-0.15625 0.171724,-0.105583 0.1647607,-0.147945 0.089844,-0.148437 z m -3.3007812,0.04297 c -0.013234,0.0029 -0.027676,0.01941 -0.042969,0.05664 -0.053921,0.09741 -0.064531,0.177182 -0.058594,0.248047 l 0.2519531,0 C 4.4492376,14.35976 4.406048,14.184553 4.3574219,14.195312 Z m 9.3085941,0 c -0.01323,0.0029 -0.02768,0.01941 -0.04297,0.05664 -0.05083,0.09183 -0.06335,0.168068 -0.06055,0.236328 0.07832,-0.005 0.152313,-0.02301 0.224609,-0.04492 -0.04513,-0.126247 -0.07987,-0.257168 -0.121093,-0.248047 z m -3.230469,0.07031 c -0.118962,6.2e-5 -0.152428,0.127781 -0.171875,0.234375 l 0.162109,0 c -0.02149,-0.05073 -0.02599,-0.122416 0.0098,-0.234375 z m -4.3515626,0.164063 c -0.042738,0.01225 -0.068666,0.03858 -0.085937,0.07031 l 0.1289062,0 c -0.00134,-0.01379 -0.014896,-0.04396 -0.00781,-0.04492 0.00425,-5.63e-4 0.033133,0.03969 0.041016,0.04492 l 0.3261719,0 C 6.350215,14.434657 6.1893595,14.399476 6.0839844,14.429688 Z"
         id="path3374" />
      <g
         id="g4457">
        <path
           id="path4208"
           d="m 5.5,2 0,12 z m 5,0 0,12 z"
           style="opacity:0.3;fill:none;fill-rule:evenodd;stroke:#4e342e;stroke-width:0.99999994px;stroke-linecap:butt;stroke-linejoin:miter;stroke-opacity:1"
           inkscape:connector-curvature="0"
           sodipodi:nodetypes="cccccc" />
        <path
           id="path4216"
           d="m 2,5.5 12,0 z m 0,5 12,0 z"
           style="opacity:0.3;fill:none;fill-rule:evenodd;stroke:#4e342e;stroke-width:0.99999994px;stroke-linecap:butt;stroke-linejoin:miter;stroke-opacity:1"
           inkscape:connector-curvature="0"
           sodipodi:nodetypes="cccccc" />
      </g>
      <rect
         style="opacity:0.5;fill:none;stroke:url(#linearGradient3304);stroke-width:1;stroke-linecap:round;stroke-linejoin:round;stroke-miterlimit:4;stroke-dasharray:none;stroke-dashoffset:0;stroke-opacity:1"
         id="rect6741-0-3-5"
         y="2.4999986"
         x="2.4999986"
         height="11"
         width="11" />
      <rect
         style="color:#000000;display:inline;overflow:visible;visibility:visible;opacity:0.7;fill:none;stroke:#4e342e;stroke-width:1;stroke-linecap:round;stroke-linejoin:round;stroke-miterlimit:4;stroke-dasharray:none;stroke-dashoffset:0;stroke-opacity:1;marker:none;enable-background:accumulate"
         id="rect5505-21-2-8"
         y="1.4999986"
         x="1.4999986"
         ry="1"
         rx="1"
         height="13.000003"
         width="13.000003" />
    </g>
    <g
       id="g4209">
      <path
         style="font-style:normal;font-variant:normal;font-weight:bold;font-stretch:normal;font-size:54.32863617px;line-height:125%;font-family:'Roboto Mono';-inkscape-font-specification:'Roboto Mono, Bold';text-align:start;letter-spacing:0px;word-spacing:0px;writing-mode:lr-tb;text-anchor:start;opacity:0.6;fill:#ffffff;fill-opacity:1;stroke:none;stroke-width:1px;stroke-linecap:butt;stroke-linejoin:miter;stroke-opacity:1"
         id="path4356"
         d="m 9.585106,10.73464 q 0,-0.178095 -0.08511,-0.313447 Q 9.421986,10.285841 9.209214,10.171862 9.003542,10.050758 8.656025,9.951024 8.308508,9.851284 7.776592,9.751559 7.102833,9.616207 6.54255,9.416742 5.989359,9.210152 5.592197,8.9252 5.195033,8.633126 4.968083,8.255566 4.748226,7.878006 4.748226,7.386465 q 0,-0.477292 0.22695,-0.911843 Q 5.202125,6.040071 5.627657,5.712378 6.053192,5.384685 6.66312,5.192343 7.273049,5 8.039007,5 q 0.801417,0 1.439714,0.192343 0.638297,0.185217 1.078014,0.520035 0.446807,0.327693 0.68085,0.783615 0.234043,0.455921 0.234043,0.990205 l -1.971629,0 q 0,-0.448798 -0.361702,-0.747997 -0.361702,-0.306322 -1.09929,-0.306322 -0.687943,0 -1.042554,0.249332 -0.347517,0.249332 -0.347517,0.612645 0,0.17097 0.07092,0.32057 0.07091,0.142476 0.248227,0.26358 0.184398,0.113977 0.496455,0.213713 0.312056,0.09261 0.794324,0.163847 0.695036,0.113977 1.290781,0.292074 0.595744,0.178095 1.028367,0.463046 0.432625,0.277827 0.673758,0.683882 Q 11.5,10.093499 11.5,10.649154 q 0,0.512912 -0.248227,0.947462 -0.241134,0.427427 -0.695035,0.740873 Q 10.109929,12.650935 9.471633,12.82903 8.83333,13 8.046097,13 7.180849,13 6.514183,12.77204 5.854608,12.544079 5.407801,12.180766 4.960992,11.81033 4.72695,11.347285 4.5,10.877115 4.5,10.406946 l 1.879431,0 q 0.02128,0.313446 0.170213,0.541407 0.148936,0.220837 0.382978,0.363312 0.234043,0.135352 0.531916,0.199466 0.304962,0.06412 0.624113,0.06412 0.730495,0 1.113474,-0.235085 0.382979,-0.235084 0.382979,-0.60552 z"
         inkscape:connector-curvature="0" />
      <path
         inkscape:connector-curvature="0"
         d="m 9.585106,9.73464 q 0,-0.178095 -0.08511,-0.313447 Q 9.421986,9.285841 9.209214,9.171862 9.003542,9.050758 8.656025,8.951024 8.308508,8.851284 7.776592,8.751559 7.102833,8.616207 6.54255,8.416742 5.989359,8.210152 5.592197,7.9252 5.195033,7.633126 4.968083,7.255566 4.748226,6.878006 4.748226,6.386465 q 0,-0.477292 0.22695,-0.911843 Q 5.202125,5.040071 5.627657,4.712378 6.053192,4.384685 6.66312,4.192343 7.273049,4 8.039007,4 q 0.801417,0 1.439714,0.192343 0.638297,0.185217 1.078014,0.520035 0.446807,0.327693 0.68085,0.783615 0.234043,0.455921 0.234043,0.990205 l -1.971629,0 q 0,-0.448798 -0.361702,-0.747997 -0.361702,-0.306322 -1.09929,-0.306322 -0.687943,0 -1.042554,0.249332 -0.347517,0.249332 -0.347517,0.612645 0,0.17097 0.07092,0.32057 0.07091,0.142476 0.248227,0.26358 0.184398,0.113977 0.496455,0.213713 0.312056,0.09261 0.794324,0.163847 0.695036,0.113977 1.290781,0.292074 0.595744,0.178095 1.028367,0.463046 0.432625,0.277827 0.673758,0.683882 Q 11.5,9.093499 11.5,9.649154 q 0,0.512912 -0.248227,0.947462 -0.241134,0.427427 -0.695035,0.740873 Q 10.109929,11.650935 9.471633,11.82903 8.83333,12 8.046097,12 7.180849,12 6.514183,11.77204 5.854608,11.544079 5.407801,11.180766 4.960992,10.81033 4.72695,10.347285 4.5,9.877115 4.5,9.406946 l 1.879431,0 q 0.02128,0.313446 0.170213,0.541407 0.148936,0.220837 0.382978,0.363312 0.234043,0.135352 0.531916,0.199466 0.304962,0.06412 0.624113,0.06412 0.730495,0 1.113474,-0.235085 0.382979,-0.235084 0.382979,-0.60552 z"
         id="path4365"
         style="font-style:normal;font-variant:normal;font-weight:bold;font-stretch:normal;font-size:54.32863617px;line-height:125%;font-family:'Roboto Mono';-inkscape-font-specification:'Roboto Mono, Bold';text-align:start;letter-spacing:0px;word-spacing:0px;writing-mode:lr-tb;text-anchor:start;fill:url(#linearGradient4243);fill-opacity:1;stroke:none;stroke-width:1px;stroke-linecap:butt;stroke-linejoin:miter;stroke-opacity:1" />
      <path
         style="font-style:normal;font-variant:normal;font-weight:bold;font-stretch:normal;font-size:54.32863617px;line-height:125%;font-family:'Roboto Mono';-inkscape-font-specification:'Roboto Mono, Bold';text-align:start;letter-spacing:0px;word-spacing:0px;writing-mode:lr-tb;text-anchor:start;opacity:0.15;fill:#000000;fill-opacity:1;stroke:none;stroke-width:1px;stroke-linecap:butt;stroke-linejoin:miter;stroke-opacity:1"
         d="M 8.0390625,4 C 7.5284238,4 7.0706818,4.0631776 6.6640625,4.1914062 6.2574438,4.3196343 5.9106431,4.4944286 5.6269531,4.7128906 5.3432651,4.9313526 5.1259087,5.1849087 4.9746094,5.4746094 4.8233094,5.76431 4.7480469,6.0685241 4.7480469,6.3867188 c 0,0.1788787 0.026638,0.3437635 0.070312,0.5 0.03761,-0.1400325 0.086297,-0.2781679 0.15625,-0.4121094 C 5.1259087,6.1849087 5.3432651,5.9313526 5.6269531,5.7128906 5.9106431,5.4944286 6.2574438,5.3196343 6.6640625,5.1914062 7.0706818,5.0631776 7.5284238,5 8.0390625,5 c 0.534278,0 1.0139218,0.063178 1.4394531,0.1914062 0.4255314,0.1234781 0.7849804,0.2982724 1.0781254,0.5214844 0.294563,0.2160357 0.519927,0.4738043 0.675781,0.7734375 l 0.238281,0 c 0,-0.3561893 -0.07639,-0.686287 -0.232422,-0.9902343 C 11.082253,5.1921457 10.854512,4.9313526 10.556641,4.7128906 10.263496,4.4896786 9.904047,4.3148843 9.4785156,4.1914062 9.0529843,4.0631776 8.5733405,4 8.0390625,4 Z M 6.890625,6.7949219 C 6.7437033,6.9396148 6.6484375,7.1000874 6.6484375,7.2929688 c 0,0.1139799 0.024986,0.2225322 0.072266,0.3222656 0.047273,0.094984 0.1298356,0.1829359 0.2480469,0.2636718 0.122932,0.075985 0.2880558,0.1464 0.4960938,0.2128907 0.2080373,0.06174 0.4734098,0.1165711 0.7949218,0.1640625 0.4633574,0.075985 0.8918992,0.1722843 1.2890625,0.2910156 0.3971627,0.11873 0.7408815,0.2729233 1.0292965,0.4628906 0.288417,0.185218 0.513073,0.4148436 0.673828,0.6855469 0.08367,0.1344662 0.14418,0.2821842 0.185547,0.4433595 C 11.47823,9.9818894 11.5,9.8180779 11.5,9.6484375 11.5,9.2780008 11.417441,8.9612665 11.251953,8.6953125 11.091198,8.4246092 10.866542,8.1949836 10.578125,8.0097656 10.28971,7.8197983 9.9459908,7.665605 9.5488281,7.546875 9.1516648,7.4281437 8.723123,7.331844 8.2597656,7.2558594 7.9382536,7.208368 7.6728811,7.1535369 7.4648438,7.0917969 7.2568058,7.0253062 7.091682,6.9548909 6.96875,6.8789062 6.931295,6.8533252 6.9209584,6.8219333 6.890625,6.7949219 Z M 4.5,9.40625 c 0,0.313446 0.075263,0.62796 0.2265625,0.941406 0.010465,0.02071 0.027959,0.03817 0.039063,0.05859 l 1.6132812,0 c 0.014187,0.208964 0.070633,0.390995 0.1699219,0.542969 0.099291,0.147224 0.2287377,0.268298 0.3847657,0.363281 0.1560286,0.09023 0.332668,0.156476 0.53125,0.199219 0.203308,0.04275 0.4102795,0.06445 0.6230468,0.06445 0.4869967,0 0.8579619,-0.0796 1.1132813,-0.236328 0.2553193,-0.156723 0.3847656,-0.358512 0.3847656,-0.605469 0,-0.11873 -0.029198,-0.222265 -0.085937,-0.3125 -0.037371,-0.06484 -0.1056904,-0.12611 -0.1894531,-0.183594 -0.039107,0.03281 -0.061164,0.07197 -0.109375,0.101563 -0.2553194,0.156723 -0.6262846,0.236328 -1.1132813,0.236328 -0.2127673,0 -0.4197388,-0.02171 -0.6230468,-0.06445 C 7.2662618,10.468976 7.0896224,10.402735 6.9335938,10.3125 6.7775658,10.217517 6.6481188,10.096443 6.5488281,9.9492188 6.4495395,9.7972447 6.3930929,9.615214 6.3789062,9.40625 L 4.5,9.40625 Z"
         id="path4362"
         inkscape:connector-curvature="0" />
    </g>
  </g>
</svg>
